<svg xmlns="http://www.w3.org/2000/svg" xmlns:xlink="http://www.w3.org/1999/xlink" width="425" zoomAndPan="magnify" viewBox="0 0 318.75 86.249997" height="115" preserveAspectRatio="xMidYMid meet" version="1.2"><defs/><g id="f7b1748698"><path style=" stroke:none;fill-rule:nonzero;fill:#ffffff;fill-opacity:1;" d="M 29.292969 3.09375 C 29.386719 3.105469 29.488281 3.144531 29.582031 3.144531 C 31.542969 3.234375 33.480469 3.515625 35.371094 4.066406 C 37.851562 4.777344 40.160156 5.863281 42.289062 7.328125 C 43.90625 8.4375 45.382812 9.710938 46.675781 11.195312 C 47.921875 12.621094 49.050781 14.132812 49.898438 15.832031 C 50.375 16.777344 50.835938 17.726562 51.222656 18.707031 C 51.804688 20.183594 52.207031 21.722656 52.460938 23.300781 C 52.683594 24.699219 52.820312 26.101562 52.789062 27.519531 C 52.769531 28.40625 52.667969 29.300781 52.589844 30.1875 C 52.453125 31.691406 52.136719 33.160156 51.695312 34.601562 C 51.386719 35.625 51.019531 36.632812 50.589844 37.609375 C 50.15625 38.605469 49.65625 39.570312 49.121094 40.511719 C 48.476562 41.664062 47.675781 42.710938 46.820312 43.710938 C 45.914062 44.769531 45.261719 45.980469 44.699219 47.253906 C 44.085938 48.644531 43.664062 50.09375 43.375 51.574219 C 43.082031 53.09375 42.972656 54.628906 42.964844 56.179688 C 42.957031 57.386719 42.605469 58.496094 41.953125 59.519531 C 41.1875 60.695312 40.144531 61.566406 38.960938 62.269531 C 38.628906 62.464844 38.285156 62.628906 37.953125 62.816406 C 37.878906 62.855469 37.824219 62.90625 37.714844 62.976562 C 37.886719 63.054688 38.015625 63.121094 38.152344 63.179688 C 39.015625 63.550781 39.808594 64.042969 40.460938 64.726562 C 41.375 65.671875 41.910156 66.808594 41.972656 68.125 C 42.007812 68.953125 41.765625 69.730469 41.339844 70.460938 C 40.734375 71.511719 39.84375 72.222656 38.773438 72.75 C 38.695312 72.785156 38.628906 72.835938 38.519531 72.902344 C 38.636719 72.996094 38.738281 73.082031 38.835938 73.160156 C 39.960938 73.988281 40.878906 75.003906 41.636719 76.164062 C 42.398438 77.34375 41.914062 78.785156 40.640625 79.316406 C 39.707031 79.707031 38.65625 79.21875 38.242188 78.582031 C 37.644531 77.675781 36.917969 76.898438 36.011719 76.300781 C 34.96875 75.601562 33.800781 75.191406 32.585938 74.917969 C 30.722656 74.5 28.824219 74.347656 26.917969 74.304688 C 24.875 74.253906 22.835938 74.246094 20.792969 74.210938 C 20.246094 74.203125 19.75 74.058594 19.304688 73.699219 C 18.179688 72.792969 18.390625 70.898438 19.683594 70.257812 C 20.035156 70.085938 20.390625 70.011719 20.769531 70.011719 C 23.019531 70.011719 25.28125 70.027344 27.53125 70 C 29.011719 69.984375 30.5 69.941406 31.984375 69.867188 C 33.207031 69.8125 34.429688 69.710938 35.613281 69.429688 C 36.148438 69.300781 36.6875 69.140625 37.160156 68.890625 C 37.875 68.515625 37.875 68.226562 37.320312 67.664062 C 36.835938 67.175781 36.210938 66.929688 35.570312 66.734375 C 34.148438 66.289062 32.671875 66.109375 31.191406 65.980469 C 27.675781 65.671875 24.144531 65.65625 20.617188 65.632812 C 19.582031 65.625 18.65625 64.761719 18.578125 63.777344 C 18.476562 62.515625 19.375 61.570312 20.351562 61.484375 C 21 61.429688 21.65625 61.464844 22.308594 61.433594 C 23.472656 61.386719 24.640625 61.339844 25.796875 61.261719 C 26.871094 61.191406 27.949219 61.105469 29.011719 60.953125 C 30.191406 60.785156 31.363281 60.550781 32.53125 60.3125 C 33.652344 60.082031 34.738281 59.722656 35.78125 59.261719 C 36.558594 58.914062 37.296875 58.503906 37.917969 57.914062 C 38.476562 57.378906 38.800781 56.761719 38.816406 55.949219 C 38.835938 54.789062 38.929688 53.621094 39.058594 52.46875 C 39.167969 51.53125 39.363281 50.601562 39.5625 49.683594 C 40.03125 47.527344 40.835938 45.496094 41.914062 43.574219 C 42.484375 42.566406 43.132812 41.621094 43.894531 40.75 C 44.628906 39.914062 45.230469 38.988281 45.785156 38.023438 C 46.347656 37.050781 46.8125 36.027344 47.195312 34.976562 C 47.726562 33.511719 48.121094 32.015625 48.359375 30.472656 C 48.574219 29.078125 48.667969 27.679688 48.597656 26.269531 C 48.554688 25.382812 48.433594 24.496094 48.289062 23.617188 C 48.023438 22.027344 47.519531 20.507812 46.863281 19.03125 C 46.367188 17.90625 45.75 16.855469 45.050781 15.847656 C 44.460938 14.996094 43.800781 14.199219 43.089844 13.449219 C 42.058594 12.375 40.929688 11.4375 39.691406 10.617188 C 38.277344 9.675781 36.757812 8.941406 35.148438 8.394531 C 33.722656 7.910156 32.269531 7.601562 30.773438 7.449219 C 29.730469 7.339844 28.695312 7.320312 27.652344 7.378906 C 26.371094 7.449219 25.105469 7.636719 23.871094 7.960938 C 22.609375 8.292969 21.386719 8.730469 20.210938 9.300781 C 18.699219 10.035156 17.304688 10.949219 16.015625 12.023438 C 15.203125 12.699219 14.449219 13.441406 13.765625 14.242188 C 12.914062 15.234375 12.160156 16.308594 11.511719 17.453125 C 10.652344 18.964844 10.003906 20.5625 9.59375 22.25 C 9.347656 23.234375 9.191406 24.25 9.082031 25.261719 C 8.980469 26.1875 8.960938 27.125 8.996094 28.0625 C 9.023438 28.933594 9.132812 29.8125 9.285156 30.667969 C 9.433594 31.527344 9.644531 32.382812 9.902344 33.21875 C 10.140625 33.980469 10.421875 34.746094 10.765625 35.464844 C 11.175781 36.328125 11.636719 37.1875 12.152344 37.992188 C 12.636719 38.75 13.226562 39.425781 13.75 40.160156 C 14.230469 40.835938 14.742188 41.5 15.152344 42.21875 C 15.671875 43.136719 16.125 44.09375 16.554688 45.058594 C 17.074219 46.226562 17.441406 47.441406 17.777344 48.671875 C 18.074219 49.746094 18.578125 50.683594 19.589844 51.25 C 20.117188 51.546875 20.691406 51.707031 21.289062 51.71875 C 22.566406 51.753906 23.847656 51.753906 25.136719 51.769531 C 25.917969 51.777344 26.566406 51.480469 27.097656 50.90625 C 28.761719 49.105469 30.359375 47.253906 31.761719 45.246094 C 33.082031 43.359375 34.304688 41.40625 35.269531 39.3125 C 35.792969 38.164062 36.296875 37.011719 36.738281 35.832031 C 37.203125 34.566406 37.542969 33.246094 37.484375 31.871094 C 37.449219 31.019531 37.269531 30.207031 36.722656 29.523438 C 35.960938 28.558594 34.421875 28.089844 33.226562 28.515625 C 32.304688 28.847656 31.507812 29.359375 30.847656 30.09375 C 30.722656 30.230469 30.710938 30.359375 30.753906 30.523438 C 30.933594 31.203125 31.082031 31.886719 31.027344 32.585938 C 30.925781 33.636719 30.449219 34.5 29.550781 35.074219 C 28.847656 35.53125 28.09375 35.421875 27.414062 34.839844 C 26.523438 34.074219 26.222656 33.109375 26.328125 31.964844 C 26.386719 31.382812 26.496094 30.820312 26.675781 30.265625 C 26.695312 30.207031 26.683594 30.113281 26.644531 30.0625 C 26.085938 29.257812 25.386719 28.617188 24.429688 28.328125 C 23.742188 28.117188 23.050781 28.234375 22.386719 28.480469 C 21.050781 28.96875 20.375 30 20.160156 31.367188 C 19.992188 32.453125 20.171875 33.519531 20.46875 34.566406 C 20.847656 35.917969 21.523438 37.136719 22.332031 38.273438 C 22.972656 39.175781 23.648438 40.050781 24.359375 40.902344 C 24.984375 41.660156 25.683594 42.355469 26.335938 43.09375 C 26.898438 43.726562 27.027344 44.460938 26.71875 45.238281 C 26.421875 45.996094 25.839844 46.441406 25.019531 46.542969 C 24.207031 46.636719 23.597656 46.273438 23.078125 45.691406 C 22.359375 44.890625 21.613281 44.113281 20.914062 43.285156 C 19.691406 41.832031 18.5625 40.304688 17.664062 38.605469 C 16.894531 37.15625 16.355469 35.644531 16.085938 34.03125 C 15.835938 32.492188 15.859375 30.957031 16.332031 29.453125 C 17.039062 27.242188 18.433594 25.632812 20.574219 24.707031 C 21.597656 24.257812 22.660156 24.0625 23.761719 24.042969 C 24.890625 24.019531 25.90625 24.402344 26.839844 25.015625 C 27.507812 25.453125 28.113281 25.972656 28.644531 26.570312 C 28.78125 26.722656 28.875 26.742188 29.046875 26.585938 C 29.703125 25.988281 30.40625 25.460938 31.175781 25.023438 C 32.429688 24.308594 33.757812 24.007812 35.207031 24.238281 C 36.585938 24.460938 37.832031 24.972656 38.910156 25.871094 C 39.773438 26.585938 40.425781 27.457031 40.878906 28.480469 C 41.1875 29.171875 41.398438 29.890625 41.492188 30.640625 C 41.59375 31.445312 41.65625 32.253906 41.535156 33.066406 C 41.449219 33.664062 41.414062 34.277344 41.261719 34.867188 C 41.003906 35.882812 40.722656 36.890625 40.355469 37.871094 C 39.902344 39.066406 39.398438 40.246094 38.835938 41.390625 C 38.3125 42.464844 37.730469 43.523438 37.082031 44.53125 C 36.097656 46.074219 35.074219 47.59375 34.011719 49.082031 C 33.132812 50.308594 32.207031 51.496094 31.25 52.65625 C 30.480469 53.59375 29.617188 54.464844 28.589844 55.132812 C 27.960938 55.542969 27.277344 55.839844 26.523438 55.855469 C 24.746094 55.882812 22.972656 55.917969 21.203125 55.875 C 19.914062 55.847656 18.667969 55.515625 17.527344 54.882812 C 16.511719 54.3125 15.683594 53.550781 15.023438 52.589844 C 14.28125 51.511719 13.894531 50.292969 13.527344 49.054688 C 13.234375 48.054688 12.851562 47.066406 12.449219 46.101562 C 11.960938 44.929688 11.332031 43.832031 10.550781 42.824219 C 9.96875 42.070312 9.363281 41.335938 8.824219 40.542969 C 7.472656 38.554688 6.472656 36.394531 5.78125 34.089844 C 5.328125 32.578125 5.03125 31.042969 4.867188 29.472656 C 4.808594 28.96875 4.804688 28.464844 4.765625 27.953125 C 4.761719 27.859375 4.730469 27.773438 4.714844 27.6875 C 4.714844 27.355469 4.714844 27.015625 4.714844 26.6875 C 4.746094 26.40625 4.78125 26.132812 4.808594 25.851562 C 4.898438 25.015625 4.96875 24.179688 5.082031 23.351562 C 5.269531 21.988281 5.621094 20.671875 6.070312 19.375 C 6.59375 17.855469 7.261719 16.402344 8.082031 15.011719 C 8.816406 13.765625 9.652344 12.597656 10.59375 11.503906 C 11.46875 10.472656 12.433594 9.539062 13.46875 8.671875 C 14.9375 7.457031 16.527344 6.417969 18.246094 5.578125 C 19.9375 4.75 21.691406 4.128906 23.53125 3.71875 C 24.828125 3.429688 26.128906 3.234375 27.453125 3.179688 C 27.730469 3.164062 28.003906 3.121094 28.277344 3.085938 C 28.625 3.09375 28.953125 3.09375 29.292969 3.09375 Z M 29.292969 3.09375 "/><g style="fill:#ffffff;fill-opacity:1;"><g transform="translate(67.468797, 71.464775)"><path style="stroke:none" d="M 9.484375 -21.046875 L 13.25 -21.046875 L 15.625 -14.0625 L 18.015625 -21.046875 L 21.8125 -21.046875 L 18.21875 -11.4375 L 20.890625 -4.703125 L 26.859375 -21.09375 L 31.328125 -21.09375 L 22.734375 0 L 19.28125 0 L 15.625 -8.859375 L 11.984375 0 L 8.53125 0 L 0 -21.09375 L 4.390625 -21.09375 L 10.40625 -4.703125 L 13.015625 -11.4375 Z M 9.484375 -21.046875 "/></g></g><g style="fill:#ffffff;fill-opacity:1;"><g transform="translate(98.76198, 71.464775)"><path style="stroke:none" d="M 6.0625 0.296875 C 5.3125 0.296875 4.609375 0.171875 3.953125 -0.078125 C 3.296875 -0.328125 2.726562 -0.671875 2.25 -1.109375 C 1.78125 -1.554688 1.410156 -2.078125 1.140625 -2.671875 C 0.878906 -3.265625 0.75 -3.921875 0.75 -4.640625 C 0.75 -5.367188 0.910156 -6.046875 1.234375 -6.671875 C 1.554688 -7.296875 2.007812 -7.828125 2.59375 -8.265625 C 3.1875 -8.703125 3.882812 -9.039062 4.6875 -9.28125 C 5.5 -9.53125 6.394531 -9.65625 7.375 -9.65625 C 8.0625 -9.65625 8.738281 -9.59375 9.40625 -9.46875 C 10.070312 -9.351562 10.660156 -9.1875 11.171875 -8.96875 L 11.171875 -9.859375 C 11.171875 -10.890625 10.878906 -11.679688 10.296875 -12.234375 C 9.710938 -12.796875 8.847656 -13.078125 7.703125 -13.078125 C 6.867188 -13.078125 6.054688 -12.925781 5.265625 -12.625 C 4.472656 -12.332031 3.660156 -11.898438 2.828125 -11.328125 L 1.609375 -13.84375 C 3.609375 -15.175781 5.765625 -15.84375 8.078125 -15.84375 C 10.316406 -15.84375 12.054688 -15.289062 13.296875 -14.1875 C 14.535156 -13.09375 15.15625 -11.503906 15.15625 -9.421875 L 15.15625 -4.578125 C 15.15625 -4.160156 15.226562 -3.863281 15.375 -3.6875 C 15.53125 -3.507812 15.773438 -3.410156 16.109375 -3.390625 L 16.109375 0 C 15.429688 0.132812 14.847656 0.203125 14.359375 0.203125 C 13.597656 0.203125 13.015625 0.0351562 12.609375 -0.296875 C 12.203125 -0.628906 11.953125 -1.078125 11.859375 -1.640625 L 11.765625 -2.5 C 11.078125 -1.582031 10.234375 -0.882812 9.234375 -0.40625 C 8.242188 0.0625 7.1875 0.296875 6.0625 0.296875 Z M 7.1875 -2.609375 C 7.863281 -2.609375 8.503906 -2.726562 9.109375 -2.96875 C 9.710938 -3.207031 10.179688 -3.523438 10.515625 -3.921875 C 10.953125 -4.253906 11.171875 -4.628906 11.171875 -5.046875 L 11.171875 -6.828125 C 10.703125 -7.015625 10.1875 -7.160156 9.625 -7.265625 C 9.070312 -7.367188 8.539062 -7.421875 8.03125 -7.421875 C 7 -7.421875 6.15625 -7.1875 5.5 -6.71875 C 4.84375 -6.257812 4.515625 -5.675781 4.515625 -4.96875 C 4.515625 -4.289062 4.769531 -3.726562 5.28125 -3.28125 C 5.800781 -2.832031 6.4375 -2.609375 7.1875 -2.609375 Z M 7.1875 -2.609375 "/></g></g><g style="fill:#ffffff;fill-opacity:1;"><g transform="translate(115.820182, 71.464775)"><path style="stroke:none" d="M 11.078125 -12.125 C 9.867188 -12.101562 8.789062 -11.867188 7.84375 -11.421875 C 6.894531 -10.984375 6.210938 -10.316406 5.796875 -9.421875 L 5.796875 0 L 1.8125 0 L 1.8125 -15.578125 L 5.46875 -15.578125 L 5.46875 -12.25 C 5.75 -12.78125 6.078125 -13.257812 6.453125 -13.6875 C 6.828125 -14.113281 7.234375 -14.484375 7.671875 -14.796875 C 8.109375 -15.117188 8.546875 -15.363281 8.984375 -15.53125 C 9.429688 -15.695312 9.863281 -15.78125 10.28125 -15.78125 C 10.5 -15.78125 10.660156 -15.78125 10.765625 -15.78125 C 10.878906 -15.78125 10.984375 -15.769531 11.078125 -15.75 Z M 11.078125 -12.125 "/></g></g><g style="fill:#ffffff;fill-opacity:1;"><g transform="translate(127.321095, 71.464775)"><path style="stroke:none" d="M 21.125 -15.578125 L 24.90625 -15.578125 L 18.390625 0 L 15.125 0 L 12.453125 -6.828125 L 9.8125 0 L 6.53125 0 L 0.0625 -15.578125 L 3.796875 -15.578125 L 8.4375 -3.75 L 10.34375 -8.796875 L 7.609375 -15.546875 L 10.8125 -15.546875 L 12.453125 -10.765625 L 14.109375 -15.546875 L 17.328125 -15.546875 L 14.625 -8.796875 L 16.5 -3.75 Z M 21.125 -15.578125 "/></g></g><g style="fill:#ffffff;fill-opacity:1;"><g transform="translate(152.254606, 71.464775)"><path style="stroke:none" d="M 1.8125 0 L 1.8125 -15.578125 L 5.796875 -15.578125 L 5.796875 0 Z M 1.8125 -17.734375 L 1.8125 -21.6875 L 5.796875 -21.6875 L 5.796875 -17.734375 Z M 1.8125 -17.734375 "/></g></g><g style="fill:#ffffff;fill-opacity:1;"><g transform="translate(159.832733, 71.464775)"><path style="stroke:none" d="M 0.828125 -7.78125 C 0.828125 -8.875 1.015625 -9.90625 1.390625 -10.875 C 1.773438 -11.84375 2.320312 -12.691406 3.03125 -13.421875 C 3.738281 -14.160156 4.597656 -14.75 5.609375 -15.1875 C 6.617188 -15.625 7.757812 -15.84375 9.03125 -15.84375 C 10.738281 -15.84375 12.191406 -15.472656 13.390625 -14.734375 C 14.585938 -14.003906 15.484375 -13.046875 16.078125 -11.859375 L 12.1875 -10.671875 C 11.84375 -11.242188 11.394531 -11.679688 10.84375 -11.984375 C 10.289062 -12.296875 9.675781 -12.453125 9 -12.453125 C 8.425781 -12.453125 7.890625 -12.335938 7.390625 -12.109375 C 6.898438 -11.878906 6.472656 -11.5625 6.109375 -11.15625 C 5.742188 -10.75 5.457031 -10.257812 5.25 -9.6875 C 5.039062 -9.113281 4.9375 -8.476562 4.9375 -7.78125 C 4.9375 -7.09375 5.046875 -6.457031 5.265625 -5.875 C 5.484375 -5.300781 5.773438 -4.804688 6.140625 -4.390625 C 6.503906 -3.984375 6.929688 -3.664062 7.421875 -3.4375 C 7.921875 -3.207031 8.445312 -3.09375 9 -3.09375 C 9.71875 -3.09375 10.378906 -3.269531 10.984375 -3.625 C 11.585938 -3.976562 12.007812 -4.414062 12.25 -4.9375 L 16.140625 -3.75 C 15.597656 -2.5625 14.710938 -1.585938 13.484375 -0.828125 C 12.265625 -0.078125 10.789062 0.296875 9.0625 0.296875 C 7.789062 0.296875 6.648438 0.078125 5.640625 -0.359375 C 4.628906 -0.796875 3.765625 -1.382812 3.046875 -2.125 C 2.335938 -2.863281 1.789062 -3.722656 1.40625 -4.703125 C 1.019531 -5.691406 0.828125 -6.71875 0.828125 -7.78125 Z M 0.828125 -7.78125 "/></g></g><g style="fill:#ffffff;fill-opacity:1;"><g transform="translate(176.593752, 71.464775)"><path style="stroke:none" d="M 12.453125 0 L 7.9375 -6.75 L 5.796875 -4.640625 L 5.796875 0 L 1.8125 0 L 1.8125 -21.6875 L 5.796875 -21.6875 L 5.796875 -8.53125 L 12.03125 -15.546875 L 16.28125 -15.546875 L 10.484375 -8.9375 L 16.703125 0 Z M 12.453125 0 "/></g></g><g style="fill:#ffffff;fill-opacity:1;"><g transform="translate(67.468797, 36.517861)"><path style="stroke:none" d="M 16.828125 -1.84375 L 16.828125 0 L 2.640625 0 L 2.640625 -21.109375 L 16.5625 -21.109375 L 16.5625 -19.265625 L 4.734375 -19.265625 L 4.734375 -11.65625 L 15.046875 -11.65625 L 15.046875 -9.90625 L 4.734375 -9.90625 L 4.734375 -1.84375 Z M 16.828125 -1.84375 "/></g></g><g style="fill:#ffffff;fill-opacity:1;"><g transform="translate(85.574262, 36.517861)"><path style="stroke:none" d="M 2.96875 0 L 2.96875 -13.890625 L 0.828125 -13.890625 L 0.828125 -15.484375 L 2.96875 -15.484375 L 2.96875 -15.90625 C 2.96875 -17.8125 3.375 -19.300781 4.1875 -20.375 C 5 -21.457031 6.109375 -22 7.515625 -22 C 8.128906 -22 8.722656 -21.910156 9.296875 -21.734375 C 9.878906 -21.554688 10.378906 -21.316406 10.796875 -21.015625 L 10.171875 -19.5625 C 9.890625 -19.78125 9.546875 -19.945312 9.140625 -20.0625 C 8.734375 -20.1875 8.320312 -20.25 7.90625 -20.25 C 6.957031 -20.25 6.234375 -19.878906 5.734375 -19.140625 C 5.242188 -18.410156 5 -17.351562 5 -15.96875 L 5 -15.484375 L 9.28125 -15.484375 L 9.28125 -13.890625 L 5 -13.890625 L 5 0 Z M 2.96875 0 "/></g></g><g style="fill:#ffffff;fill-opacity:1;"><g transform="translate(95.385102, 36.517861)"><path style="stroke:none" d="M 2.96875 0 L 2.96875 -13.890625 L 0.828125 -13.890625 L 0.828125 -15.484375 L 2.96875 -15.484375 L 2.96875 -15.90625 C 2.96875 -17.8125 3.375 -19.300781 4.1875 -20.375 C 5 -21.457031 6.109375 -22 7.515625 -22 C 8.128906 -22 8.722656 -21.910156 9.296875 -21.734375 C 9.878906 -21.554688 10.378906 -21.316406 10.796875 -21.015625 L 10.171875 -19.5625 C 9.890625 -19.78125 9.546875 -19.945312 9.140625 -20.0625 C 8.734375 -20.1875 8.320312 -20.25 7.90625 -20.25 C 6.957031 -20.25 6.234375 -19.878906 5.734375 -19.140625 C 5.242188 -18.410156 5 -17.351562 5 -15.96875 L 5 -15.484375 L 9.28125 -15.484375 L 9.28125 -13.890625 L 5 -13.890625 L 5 0 Z M 2.96875 0 "/></g></g><g style="fill:#ffffff;fill-opacity:1;"><g transform="translate(105.195942, 36.517861)"><path style="stroke:none" d="M 8.921875 0.296875 C 7.785156 0.296875 6.75 0.0820312 5.8125 -0.34375 C 4.875 -0.769531 4.054688 -1.351562 3.359375 -2.09375 C 2.660156 -2.84375 2.117188 -3.703125 1.734375 -4.671875 C 1.347656 -5.640625 1.15625 -6.679688 1.15625 -7.796875 C 1.15625 -8.878906 1.347656 -9.898438 1.734375 -10.859375 C 2.117188 -11.828125 2.65625 -12.671875 3.34375 -13.390625 C 4.03125 -14.117188 4.847656 -14.695312 5.796875 -15.125 C 6.742188 -15.550781 7.773438 -15.765625 8.890625 -15.765625 C 10.015625 -15.765625 11.046875 -15.550781 11.984375 -15.125 C 12.929688 -14.695312 13.742188 -14.113281 14.421875 -13.375 C 15.097656 -12.644531 15.625 -11.800781 16 -10.84375 C 16.375 -9.894531 16.5625 -8.882812 16.5625 -7.8125 C 16.5625 -7.65625 16.5625 -7.5 16.5625 -7.34375 C 16.5625 -7.1875 16.550781 -7.078125 16.53125 -7.015625 L 3.265625 -7.015625 C 3.328125 -6.179688 3.519531 -5.410156 3.84375 -4.703125 C 4.175781 -4.003906 4.597656 -3.394531 5.109375 -2.875 C 5.628906 -2.363281 6.21875 -1.960938 6.875 -1.671875 C 7.539062 -1.390625 8.253906 -1.25 9.015625 -1.25 C 9.503906 -1.25 9.992188 -1.316406 10.484375 -1.453125 C 10.984375 -1.597656 11.441406 -1.785156 11.859375 -2.015625 C 12.273438 -2.253906 12.648438 -2.546875 12.984375 -2.890625 C 13.328125 -3.242188 13.585938 -3.628906 13.765625 -4.046875 L 15.515625 -3.5625 C 15.285156 -2.988281 14.953125 -2.46875 14.515625 -2 C 14.078125 -1.539062 13.566406 -1.132812 12.984375 -0.78125 C 12.410156 -0.4375 11.773438 -0.171875 11.078125 0.015625 C 10.390625 0.203125 9.671875 0.296875 8.921875 0.296875 Z M 14.625 -8.5625 C 14.570312 -9.394531 14.378906 -10.148438 14.046875 -10.828125 C 13.722656 -11.515625 13.304688 -12.101562 12.796875 -12.59375 C 12.296875 -13.09375 11.710938 -13.484375 11.046875 -13.765625 C 10.378906 -14.046875 9.671875 -14.1875 8.921875 -14.1875 C 8.171875 -14.1875 7.457031 -14.046875 6.78125 -13.765625 C 6.101562 -13.484375 5.507812 -13.09375 5 -12.59375 C 4.5 -12.101562 4.09375 -11.507812 3.78125 -10.8125 C 3.476562 -10.125 3.296875 -9.375 3.234375 -8.5625 Z M 14.625 -8.5625 "/></g></g><g style="fill:#ffffff;fill-opacity:1;"><g transform="translate(122.647354, 36.517861)"><path style="stroke:none" d="M 1.15625 -7.796875 C 1.15625 -8.878906 1.34375 -9.90625 1.71875 -10.875 C 2.101562 -11.851562 2.632812 -12.703125 3.3125 -13.421875 C 4 -14.148438 4.816406 -14.722656 5.765625 -15.140625 C 6.722656 -15.554688 7.773438 -15.765625 8.921875 -15.765625 C 10.390625 -15.765625 11.664062 -15.429688 12.75 -14.765625 C 13.84375 -14.097656 14.664062 -13.203125 15.21875 -12.078125 L 13.265625 -11.453125 C 12.828125 -12.242188 12.21875 -12.859375 11.4375 -13.296875 C 10.65625 -13.742188 9.785156 -13.96875 8.828125 -13.96875 C 8.035156 -13.96875 7.296875 -13.8125 6.609375 -13.5 C 5.929688 -13.1875 5.335938 -12.753906 4.828125 -12.203125 C 4.328125 -11.660156 3.929688 -11.007812 3.640625 -10.25 C 3.359375 -9.5 3.21875 -8.679688 3.21875 -7.796875 C 3.21875 -6.921875 3.363281 -6.09375 3.65625 -5.3125 C 3.957031 -4.539062 4.363281 -3.875 4.875 -3.3125 C 5.394531 -2.75 5.992188 -2.300781 6.671875 -1.96875 C 7.359375 -1.644531 8.085938 -1.484375 8.859375 -1.484375 C 9.359375 -1.484375 9.847656 -1.550781 10.328125 -1.6875 C 10.816406 -1.832031 11.269531 -2.023438 11.6875 -2.265625 C 12.101562 -2.515625 12.457031 -2.796875 12.75 -3.109375 C 13.050781 -3.429688 13.257812 -3.773438 13.375 -4.140625 L 15.375 -3.53125 C 15.15625 -2.976562 14.835938 -2.46875 14.421875 -2 C 14.003906 -1.539062 13.515625 -1.132812 12.953125 -0.78125 C 12.390625 -0.4375 11.765625 -0.171875 11.078125 0.015625 C 10.390625 0.203125 9.679688 0.296875 8.953125 0.296875 C 7.816406 0.296875 6.773438 0.0820312 5.828125 -0.34375 C 4.878906 -0.769531 4.054688 -1.351562 3.359375 -2.09375 C 2.660156 -2.84375 2.117188 -3.703125 1.734375 -4.671875 C 1.347656 -5.640625 1.15625 -6.679688 1.15625 -7.796875 Z M 1.15625 -7.796875 "/></g></g><g style="fill:#ffffff;fill-opacity:1;"><g transform="translate(138.969033, 36.517861)"><path style="stroke:none" d="M 9.65625 -0.75 C 9.539062 -0.6875 9.367188 -0.601562 9.140625 -0.5 C 8.910156 -0.40625 8.644531 -0.304688 8.34375 -0.203125 C 8.050781 -0.109375 7.71875 -0.0234375 7.34375 0.046875 C 6.96875 0.128906 6.570312 0.171875 6.15625 0.171875 C 5.71875 0.171875 5.300781 0.113281 4.90625 0 C 4.507812 -0.113281 4.160156 -0.296875 3.859375 -0.546875 C 3.566406 -0.796875 3.332031 -1.109375 3.15625 -1.484375 C 2.976562 -1.859375 2.890625 -2.296875 2.890625 -2.796875 L 2.890625 -13.890625 L 0.75 -13.890625 L 0.75 -15.484375 L 2.890625 -15.484375 L 2.890625 -20.71875 L 4.90625 -20.71875 L 4.90625 -15.484375 L 8.46875 -15.484375 L 8.46875 -13.890625 L 4.90625 -13.890625 L 4.90625 -3.359375 C 4.945312 -2.785156 5.148438 -2.363281 5.515625 -2.09375 C 5.878906 -1.820312 6.300781 -1.6875 6.78125 -1.6875 C 7.351562 -1.6875 7.859375 -1.78125 8.296875 -1.96875 C 8.734375 -2.164062 9.007812 -2.300781 9.125 -2.375 Z M 9.65625 -0.75 "/></g></g><g style="fill:#ffffff;fill-opacity:1;"><g transform="translate(148.928521, 36.517861)"><path style="stroke:none" d="M 2.234375 0 L 2.234375 -15.484375 L 4.25 -15.484375 L 4.25 0 Z M 2.234375 -18.734375 L 2.234375 -21.703125 L 4.25 -21.703125 L 4.25 -18.734375 Z M 2.234375 -18.734375 "/></g></g><g style="fill:#ffffff;fill-opacity:1;"><g transform="translate(155.409623, 36.517861)"><path style="stroke:none" d="M 6.875 0 L 0.5625 -15.484375 L 2.640625 -15.484375 L 7.96875 -1.875 L 13.328125 -15.484375 L 15.28125 -15.484375 L 8.984375 0 Z M 6.875 0 "/></g></g><g style="fill:#ffffff;fill-opacity:1;"><g transform="translate(171.255622, 36.517861)"><path style="stroke:none" d="M 8.921875 0.296875 C 7.785156 0.296875 6.75 0.0820312 5.8125 -0.34375 C 4.875 -0.769531 4.054688 -1.351562 3.359375 -2.09375 C 2.660156 -2.84375 2.117188 -3.703125 1.734375 -4.671875 C 1.347656 -5.640625 1.15625 -6.679688 1.15625 -7.796875 C 1.15625 -8.878906 1.347656 -9.898438 1.734375 -10.859375 C 2.117188 -11.828125 2.65625 -12.671875 3.34375 -13.390625 C 4.03125 -14.117188 4.847656 -14.695312 5.796875 -15.125 C 6.742188 -15.550781 7.773438 -15.765625 8.890625 -15.765625 C 10.015625 -15.765625 11.046875 -15.550781 11.984375 -15.125 C 12.929688 -14.695312 13.742188 -14.113281 14.421875 -13.375 C 15.097656 -12.644531 15.625 -11.800781 16 -10.84375 C 16.375 -9.894531 16.5625 -8.882812 16.5625 -7.8125 C 16.5625 -7.65625 16.5625 -7.5 16.5625 -7.34375 C 16.5625 -7.1875 16.550781 -7.078125 16.53125 -7.015625 L 3.265625 -7.015625 C 3.328125 -6.179688 3.519531 -5.410156 3.84375 -4.703125 C 4.175781 -4.003906 4.597656 -3.394531 5.109375 -2.875 C 5.628906 -2.363281 6.21875 -1.960938 6.875 -1.671875 C 7.539062 -1.390625 8.253906 -1.25 9.015625 -1.25 C 9.503906 -1.25 9.992188 -1.316406 10.484375 -1.453125 C 10.984375 -1.597656 11.441406 -1.785156 11.859375 -2.015625 C 12.273438 -2.253906 12.648438 -2.546875 12.984375 -2.890625 C 13.328125 -3.242188 13.585938 -3.628906 13.765625 -4.046875 L 15.515625 -3.5625 C 15.285156 -2.988281 14.953125 -2.46875 14.515625 -2 C 14.078125 -1.539062 13.566406 -1.132812 12.984375 -0.78125 C 12.410156 -0.4375 11.773438 -0.171875 11.078125 0.015625 C 10.390625 0.203125 9.671875 0.296875 8.921875 0.296875 Z M 14.625 -8.5625 C 14.570312 -9.394531 14.378906 -10.148438 14.046875 -10.828125 C 13.722656 -11.515625 13.304688 -12.101562 12.796875 -12.59375 C 12.296875 -13.09375 11.710938 -13.484375 11.046875 -13.765625 C 10.378906 -14.046875 9.671875 -14.1875 8.921875 -14.1875 C 8.171875 -14.1875 7.457031 -14.046875 6.78125 -13.765625 C 6.101562 -13.484375 5.507812 -13.09375 5 -12.59375 C 4.5 -12.101562 4.09375 -11.507812 3.78125 -10.8125 C 3.476562 -10.125 3.296875 -9.375 3.234375 -8.5625 Z M 14.625 -8.5625 "/></g></g><g style="fill:#ffffff;fill-opacity:1;"><g transform="translate(188.707034, 36.517861)"><path style="stroke:none" d=""/></g></g><g style="fill:#ffffff;fill-opacity:1;"><g transform="translate(196.288145, 36.517861)"><path style="stroke:none" d="M 9.1875 -21.109375 L 10.9375 -21.109375 L 19.71875 0 L 17.515625 0 L 14.78125 -6.59375 L 5.296875 -6.59375 L 2.59375 0 L 0.359375 0 Z M 14.296875 -8.234375 L 10.046875 -18.671875 L 5.734375 -8.234375 Z M 14.296875 -8.234375 "/></g></g><g style="fill:#ffffff;fill-opacity:1;"><g transform="translate(216.385505, 36.517861)"><path style="stroke:none" d="M 2.3125 -21.703125 L 4.34375 -21.703125 L 4.34375 -3.515625 C 4.34375 -2.929688 4.5 -2.476562 4.8125 -2.15625 C 5.132812 -1.832031 5.582031 -1.671875 6.15625 -1.671875 C 6.375 -1.671875 6.628906 -1.695312 6.921875 -1.75 C 7.222656 -1.8125 7.503906 -1.894531 7.765625 -2 L 8.125 -0.359375 C 7.738281 -0.203125 7.273438 -0.078125 6.734375 0.015625 C 6.191406 0.117188 5.722656 0.171875 5.328125 0.171875 C 4.390625 0.171875 3.648438 -0.0859375 3.109375 -0.609375 C 2.578125 -1.128906 2.3125 -1.867188 2.3125 -2.828125 Z M 2.3125 -21.703125 "/></g></g><g style="fill:#ffffff;fill-opacity:1;"><g transform="translate(224.47202, 36.517861)"><path style="stroke:none" d="M 9.65625 -0.75 C 9.539062 -0.6875 9.367188 -0.601562 9.140625 -0.5 C 8.910156 -0.40625 8.644531 -0.304688 8.34375 -0.203125 C 8.050781 -0.109375 7.71875 -0.0234375 7.34375 0.046875 C 6.96875 0.128906 6.570312 0.171875 6.15625 0.171875 C 5.71875 0.171875 5.300781 0.113281 4.90625 0 C 4.507812 -0.113281 4.160156 -0.296875 3.859375 -0.546875 C 3.566406 -0.796875 3.332031 -1.109375 3.15625 -1.484375 C 2.976562 -1.859375 2.890625 -2.296875 2.890625 -2.796875 L 2.890625 -13.890625 L 0.75 -13.890625 L 0.75 -15.484375 L 2.890625 -15.484375 L 2.890625 -20.71875 L 4.90625 -20.71875 L 4.90625 -15.484375 L 8.46875 -15.484375 L 8.46875 -13.890625 L 4.90625 -13.890625 L 4.90625 -3.359375 C 4.945312 -2.785156 5.148438 -2.363281 5.515625 -2.09375 C 5.878906 -1.820312 6.300781 -1.6875 6.78125 -1.6875 C 7.351562 -1.6875 7.859375 -1.78125 8.296875 -1.96875 C 8.734375 -2.164062 9.007812 -2.300781 9.125 -2.375 Z M 9.65625 -0.75 "/></g></g><g style="fill:#ffffff;fill-opacity:1;"><g transform="translate(234.431508, 36.517861)"><path style="stroke:none" d="M 9.96875 -13.703125 C 8.59375 -13.660156 7.398438 -13.28125 6.390625 -12.5625 C 5.378906 -11.851562 4.664062 -10.878906 4.25 -9.640625 L 4.25 0 L 2.234375 0 L 2.234375 -15.484375 L 4.140625 -15.484375 L 4.140625 -11.78125 C 4.710938 -12.96875 5.484375 -13.894531 6.453125 -14.5625 C 7.421875 -15.238281 8.460938 -15.578125 9.578125 -15.578125 C 9.734375 -15.578125 9.863281 -15.566406 9.96875 -15.546875 Z M 9.96875 -13.703125 "/></g></g><g style="fill:#ffffff;fill-opacity:1;"><g transform="translate(244.866676, 36.517861)"><path style="stroke:none" d="M 7.078125 0.296875 C 5.390625 0.296875 4.132812 -0.257812 3.3125 -1.375 C 2.488281 -2.5 2.078125 -4.171875 2.078125 -6.390625 L 2.078125 -15.484375 L 4.109375 -15.484375 L 4.109375 -6.75 C 4.109375 -3.238281 5.304688 -1.484375 7.703125 -1.484375 C 8.296875 -1.484375 8.878906 -1.582031 9.453125 -1.78125 C 10.023438 -1.976562 10.554688 -2.265625 11.046875 -2.640625 C 11.535156 -3.023438 11.972656 -3.472656 12.359375 -3.984375 C 12.742188 -4.492188 13.054688 -5.078125 13.296875 -5.734375 L 13.296875 -15.484375 L 15.3125 -15.484375 L 15.3125 -2.609375 C 15.3125 -2.054688 15.550781 -1.78125 16.03125 -1.78125 L 16.03125 0 C 15.789062 0.0390625 15.59375 0.0625 15.4375 0.0625 C 15.289062 0.0625 15.191406 0.0625 15.140625 0.0625 C 14.660156 0.0390625 14.269531 -0.125 13.96875 -0.4375 C 13.675781 -0.757812 13.53125 -1.1875 13.53125 -1.71875 L 13.53125 -3.515625 C 12.851562 -2.296875 11.9375 -1.351562 10.78125 -0.6875 C 9.625 -0.03125 8.390625 0.296875 7.078125 0.296875 Z M 7.078125 0.296875 "/></g></g><g style="fill:#ffffff;fill-opacity:1;"><g transform="translate(262.526186, 36.517861)"><path style="stroke:none" d="M 2.234375 0 L 2.234375 -15.484375 L 4.25 -15.484375 L 4.25 0 Z M 2.234375 -18.734375 L 2.234375 -21.703125 L 4.25 -21.703125 L 4.25 -18.734375 Z M 2.234375 -18.734375 "/></g></g><g style="fill:#ffffff;fill-opacity:1;"><g transform="translate(269.007289, 36.517861)"><path style="stroke:none" d="M 7.375 0.296875 C 6.164062 0.296875 4.984375 0.0976562 3.828125 -0.296875 C 2.679688 -0.691406 1.691406 -1.265625 0.859375 -2.015625 L 1.78125 -3.390625 C 2.65625 -2.671875 3.539062 -2.132812 4.4375 -1.78125 C 5.34375 -1.425781 6.3125 -1.25 7.34375 -1.25 C 8.59375 -1.25 9.585938 -1.5 10.328125 -2 C 11.078125 -2.507812 11.453125 -3.226562 11.453125 -4.15625 C 11.453125 -4.59375 11.351562 -4.953125 11.15625 -5.234375 C 10.957031 -5.523438 10.660156 -5.78125 10.265625 -6 C 9.878906 -6.21875 9.394531 -6.410156 8.8125 -6.578125 C 8.226562 -6.753906 7.550781 -6.929688 6.78125 -7.109375 C 5.882812 -7.328125 5.109375 -7.546875 4.453125 -7.765625 C 3.804688 -7.984375 3.269531 -8.226562 2.84375 -8.5 C 2.414062 -8.78125 2.097656 -9.125 1.890625 -9.53125 C 1.679688 -9.9375 1.578125 -10.445312 1.578125 -11.0625 C 1.578125 -11.832031 1.726562 -12.515625 2.03125 -13.109375 C 2.34375 -13.703125 2.757812 -14.191406 3.28125 -14.578125 C 3.8125 -14.972656 4.425781 -15.269531 5.125 -15.46875 C 5.832031 -15.664062 6.582031 -15.765625 7.375 -15.765625 C 8.5625 -15.765625 9.640625 -15.566406 10.609375 -15.171875 C 11.585938 -14.785156 12.375 -14.273438 12.96875 -13.640625 L 11.984375 -12.453125 C 11.410156 -13.046875 10.710938 -13.492188 9.890625 -13.796875 C 9.066406 -14.097656 8.207031 -14.25 7.3125 -14.25 C 6.78125 -14.25 6.285156 -14.191406 5.828125 -14.078125 C 5.367188 -13.972656 4.96875 -13.800781 4.625 -13.5625 C 4.28125 -13.320312 4.007812 -13.019531 3.8125 -12.65625 C 3.613281 -12.289062 3.515625 -11.859375 3.515625 -11.359375 C 3.515625 -10.941406 3.582031 -10.601562 3.71875 -10.34375 C 3.851562 -10.09375 4.078125 -9.867188 4.390625 -9.671875 C 4.710938 -9.484375 5.113281 -9.316406 5.59375 -9.171875 C 6.082031 -9.023438 6.675781 -8.875 7.375 -8.71875 C 8.363281 -8.476562 9.234375 -8.238281 9.984375 -8 C 10.742188 -7.757812 11.375 -7.476562 11.875 -7.15625 C 12.382812 -6.84375 12.765625 -6.457031 13.015625 -6 C 13.273438 -5.550781 13.40625 -5 13.40625 -4.34375 C 13.40625 -2.914062 12.859375 -1.785156 11.765625 -0.953125 C 10.679688 -0.117188 9.21875 0.296875 7.375 0.296875 Z M 7.375 0.296875 "/></g></g><g style="fill:#ffffff;fill-opacity:1;"><g transform="translate(283.485721, 36.517861)"><path style="stroke:none" d="M 25.28125 0 L 23.25 0 L 23.25 -8.65625 C 23.25 -10.457031 22.960938 -11.785156 22.390625 -12.640625 C 21.816406 -13.492188 20.960938 -13.921875 19.828125 -13.921875 C 19.234375 -13.921875 18.671875 -13.8125 18.140625 -13.59375 C 17.617188 -13.375 17.132812 -13.066406 16.6875 -12.671875 C 16.25 -12.273438 15.859375 -11.800781 15.515625 -11.25 C 15.179688 -10.707031 14.925781 -10.109375 14.75 -9.453125 L 14.75 0 L 12.71875 0 L 12.71875 -8.65625 C 12.71875 -10.5 12.441406 -11.835938 11.890625 -12.671875 C 11.335938 -13.503906 10.488281 -13.921875 9.34375 -13.921875 C 8.164062 -13.921875 7.117188 -13.515625 6.203125 -12.703125 C 5.296875 -11.890625 4.644531 -10.816406 4.25 -9.484375 L 4.25 0 L 2.234375 0 L 2.234375 -15.484375 L 4.078125 -15.484375 L 4.078125 -11.984375 C 4.710938 -13.171875 5.546875 -14.097656 6.578125 -14.765625 C 7.609375 -15.429688 8.742188 -15.765625 9.984375 -15.765625 C 11.296875 -15.765625 12.34375 -15.394531 13.125 -14.65625 C 13.90625 -13.925781 14.382812 -12.96875 14.5625 -11.78125 C 16.007812 -14.4375 18.003906 -15.765625 20.546875 -15.765625 C 21.421875 -15.765625 22.160156 -15.601562 22.765625 -15.28125 C 23.367188 -14.96875 23.851562 -14.515625 24.21875 -13.921875 C 24.582031 -13.335938 24.847656 -12.632812 25.015625 -11.8125 C 25.191406 -10.988281 25.28125 -10.070312 25.28125 -9.0625 Z M 25.28125 0 "/></g></g></g></svg>