<svg xmlns="http://www.w3.org/2000/svg" xmlns:xlink="http://www.w3.org/1999/xlink" width="500" zoomAndPan="magnify" viewBox="0 0 375 374.999991" height="500" preserveAspectRatio="xMidYMid meet" version="1.2"><defs><clipPath id="77ec8027e3"><path d="M 0 108.308594 L 375 108.308594 L 375 228.164062 L 0 228.164062 Z M 0 108.308594 "/></clipPath></defs><g id="e3f65e228f"><g clip-rule="nonzero" clip-path="url(#77ec8027e3)"><path style=" stroke:none;fill-rule:nonzero;fill:#1e5367;fill-opacity:1;" d="M 0 108.308594 L 375.027344 108.308594 L 375.027344 228.164062 L 0 228.164062 Z M 0 108.308594 "/></g><path style=" stroke:none;fill-rule:nonzero;fill:#ffffff;fill-opacity:1;" d="M 41.339844 127.019531 C 41.433594 127.035156 41.535156 127.070312 41.632812 127.070312 C 43.613281 127.164062 45.5625 127.449219 47.472656 128 C 49.972656 128.71875 52.304688 129.816406 54.449219 131.289062 C 56.082031 132.410156 57.570312 133.695312 58.875 135.191406 C 60.132812 136.628906 61.269531 138.15625 62.125 139.871094 C 62.605469 140.820312 63.070312 141.78125 63.460938 142.769531 C 64.046875 144.257812 64.453125 145.8125 64.707031 147.402344 C 64.933594 148.8125 65.070312 150.230469 65.042969 151.660156 C 65.019531 152.554688 64.917969 153.453125 64.839844 154.347656 C 64.703125 155.867188 64.382812 157.347656 63.941406 158.800781 C 63.628906 159.832031 63.257812 160.851562 62.824219 161.839844 C 62.386719 162.839844 61.878906 163.8125 61.34375 164.765625 C 60.691406 165.929688 59.882812 166.980469 59.019531 167.992188 C 58.105469 169.058594 57.445312 170.28125 56.878906 171.566406 C 56.265625 172.96875 55.835938 174.429688 55.546875 175.925781 C 55.25 177.457031 55.140625 179.003906 55.132812 180.566406 C 55.125 181.785156 54.769531 182.90625 54.109375 183.9375 C 53.339844 185.121094 52.289062 186 51.089844 186.710938 C 50.757812 186.910156 50.410156 187.074219 50.074219 187.265625 C 50.003906 187.300781 49.945312 187.351562 49.835938 187.425781 C 50.011719 187.503906 50.140625 187.570312 50.277344 187.628906 C 51.148438 188.003906 51.949219 188.5 52.609375 189.1875 C 53.527344 190.140625 54.066406 191.289062 54.132812 192.617188 C 54.167969 193.453125 53.921875 194.238281 53.492188 194.972656 C 52.882812 196.03125 51.984375 196.75 50.902344 197.28125 C 50.824219 197.320312 50.757812 197.371094 50.648438 197.433594 C 50.765625 197.527344 50.867188 197.617188 50.96875 197.695312 C 52.101562 198.53125 53.027344 199.554688 53.789062 200.726562 C 54.558594 201.917969 54.074219 203.371094 52.789062 203.90625 C 51.847656 204.300781 50.785156 203.804688 50.367188 203.167969 C 49.765625 202.25 49.03125 201.464844 48.117188 200.863281 C 47.066406 200.160156 45.890625 199.746094 44.664062 199.46875 C 42.785156 199.046875 40.871094 198.894531 38.945312 198.851562 C 36.886719 198.800781 34.824219 198.792969 32.765625 198.757812 C 32.214844 198.75 31.714844 198.605469 31.265625 198.242188 C 30.132812 197.324219 30.34375 195.414062 31.648438 194.769531 C 32.003906 194.59375 32.359375 194.523438 32.742188 194.523438 C 35.015625 194.523438 37.292969 194.535156 39.5625 194.507812 C 41.058594 194.492188 42.558594 194.449219 44.054688 194.375 C 45.289062 194.316406 46.519531 194.214844 47.71875 193.933594 C 48.253906 193.800781 48.800781 193.644531 49.277344 193.386719 C 49.996094 193.011719 49.996094 192.71875 49.4375 192.152344 C 48.953125 191.660156 48.320312 191.414062 47.675781 191.214844 C 46.238281 190.765625 44.75 190.585938 43.257812 190.453125 C 39.707031 190.140625 36.144531 190.125 32.589844 190.105469 C 31.546875 190.097656 30.609375 189.226562 30.53125 188.230469 C 30.429688 186.960938 31.335938 186.007812 32.324219 185.921875 C 32.976562 185.863281 33.636719 185.898438 34.296875 185.871094 C 35.472656 185.820312 36.648438 185.773438 37.816406 185.695312 C 38.894531 185.621094 39.984375 185.535156 41.058594 185.382812 C 42.246094 185.214844 43.429688 184.976562 44.605469 184.734375 C 45.738281 184.503906 46.832031 184.140625 47.886719 183.675781 C 48.667969 183.328125 49.414062 182.914062 50.039062 182.316406 C 50.605469 181.78125 50.933594 181.15625 50.945312 180.332031 C 50.96875 179.164062 51.0625 177.988281 51.191406 176.824219 C 51.300781 175.878906 51.496094 174.945312 51.699219 174.015625 C 52.171875 171.839844 52.984375 169.792969 54.074219 167.851562 C 54.644531 166.835938 55.300781 165.882812 56.066406 165.003906 C 56.808594 164.164062 57.417969 163.226562 57.976562 162.253906 C 58.542969 161.273438 59.015625 160.238281 59.398438 159.179688 C 59.933594 157.703125 60.335938 156.195312 60.574219 154.640625 C 60.792969 153.230469 60.886719 151.820312 60.8125 150.398438 C 60.769531 149.503906 60.644531 148.609375 60.5 147.722656 C 60.234375 146.117188 59.726562 144.585938 59.066406 143.097656 C 58.5625 141.960938 57.941406 140.902344 57.238281 139.886719 C 56.640625 139.027344 55.972656 138.222656 55.253906 137.464844 C 54.21875 136.382812 53.078125 135.4375 51.832031 134.609375 C 50.402344 133.660156 48.871094 132.917969 47.246094 132.367188 C 45.808594 131.878906 44.34375 131.566406 42.835938 131.414062 C 41.785156 131.304688 40.738281 131.285156 39.6875 131.339844 C 38.394531 131.414062 37.117188 131.601562 35.871094 131.929688 C 34.601562 132.265625 33.367188 132.707031 32.179688 133.28125 C 30.65625 134.023438 29.246094 134.945312 27.949219 136.027344 C 27.128906 136.710938 26.367188 137.457031 25.675781 138.265625 C 24.820312 139.265625 24.058594 140.351562 23.40625 141.503906 C 22.535156 143.03125 21.882812 144.644531 21.46875 146.34375 C 21.222656 147.339844 21.0625 148.363281 20.953125 149.378906 C 20.851562 150.316406 20.832031 151.261719 20.867188 152.207031 C 20.898438 153.085938 21.003906 153.972656 21.15625 154.835938 C 21.308594 155.699219 21.519531 156.5625 21.78125 157.40625 C 22.019531 158.175781 22.304688 158.945312 22.652344 159.671875 C 23.066406 160.546875 23.53125 161.410156 24.050781 162.222656 C 24.539062 162.984375 25.132812 163.667969 25.664062 164.410156 C 26.148438 165.09375 26.664062 165.761719 27.078125 166.488281 C 27.601562 167.410156 28.058594 168.375 28.492188 169.351562 C 29.015625 170.527344 29.386719 171.753906 29.726562 172.996094 C 30.023438 174.078125 30.53125 175.023438 31.554688 175.597656 C 32.082031 175.894531 32.664062 176.054688 33.265625 176.070312 C 34.558594 176.105469 35.847656 176.105469 37.148438 176.121094 C 37.9375 176.128906 38.589844 175.828125 39.128906 175.25 C 40.804688 173.433594 42.414062 171.566406 43.828125 169.539062 C 45.164062 167.636719 46.398438 165.667969 47.371094 163.554688 C 47.898438 162.398438 48.40625 161.234375 48.851562 160.042969 C 49.320312 158.765625 49.664062 157.4375 49.605469 156.046875 C 49.566406 155.191406 49.386719 154.371094 48.835938 153.679688 C 48.066406 152.707031 46.511719 152.234375 45.308594 152.664062 C 44.378906 152.996094 43.574219 153.511719 42.90625 154.253906 C 42.785156 154.390625 42.769531 154.523438 42.8125 154.691406 C 42.996094 155.371094 43.148438 156.0625 43.089844 156.769531 C 42.988281 157.828125 42.507812 158.699219 41.601562 159.28125 C 40.890625 159.738281 40.128906 159.628906 39.449219 159.042969 C 38.546875 158.269531 38.242188 157.296875 38.351562 156.144531 C 38.410156 155.554688 38.519531 154.988281 38.699219 154.429688 C 38.722656 154.371094 38.707031 154.277344 38.671875 154.226562 C 38.105469 153.410156 37.402344 152.765625 36.4375 152.472656 C 35.738281 152.261719 35.042969 152.378906 34.375 152.625 C 33.027344 153.121094 32.34375 154.160156 32.128906 155.539062 C 31.960938 156.636719 32.140625 157.710938 32.4375 158.765625 C 32.824219 160.132812 33.503906 161.359375 34.316406 162.507812 C 34.964844 163.414062 35.644531 164.300781 36.363281 165.160156 C 36.996094 165.921875 37.699219 166.625 38.359375 167.367188 C 38.925781 168.007812 39.054688 168.746094 38.742188 169.53125 C 38.445312 170.292969 37.859375 170.746094 37.03125 170.847656 C 36.210938 170.941406 35.59375 170.578125 35.074219 169.988281 C 34.347656 169.183594 33.59375 168.398438 32.890625 167.5625 C 31.65625 166.09375 30.515625 164.554688 29.609375 162.839844 C 28.832031 161.378906 28.289062 159.855469 28.019531 158.226562 C 27.765625 156.671875 27.789062 155.125 28.265625 153.609375 C 28.976562 151.378906 30.386719 149.757812 32.546875 148.820312 C 33.578125 148.371094 34.652344 148.171875 35.761719 148.152344 C 36.902344 148.128906 37.921875 148.515625 38.867188 149.132812 C 39.542969 149.574219 40.152344 150.097656 40.6875 150.703125 C 40.824219 150.855469 40.921875 150.875 41.09375 150.714844 C 41.753906 150.113281 42.464844 149.582031 43.242188 149.140625 C 44.503906 148.421875 45.847656 148.117188 47.304688 148.347656 C 48.699219 148.574219 49.953125 149.089844 51.039062 149.996094 C 51.910156 150.714844 52.570312 151.59375 53.027344 152.625 C 53.339844 153.324219 53.550781 154.050781 53.644531 154.804688 C 53.746094 155.621094 53.8125 156.433594 53.6875 157.253906 C 53.601562 157.855469 53.566406 158.476562 53.414062 159.070312 C 53.152344 160.09375 52.867188 161.113281 52.5 162.101562 C 52.042969 163.304688 51.535156 164.496094 50.96875 165.652344 C 50.4375 166.734375 49.851562 167.800781 49.199219 168.820312 C 48.203125 170.375 47.171875 171.90625 46.101562 173.410156 C 45.214844 174.644531 44.277344 175.84375 43.3125 177.015625 C 42.539062 177.957031 41.667969 178.835938 40.628906 179.511719 C 40 179.925781 39.308594 180.226562 38.546875 180.238281 C 36.753906 180.269531 34.964844 180.304688 33.179688 180.261719 C 31.878906 180.230469 30.625 179.898438 29.472656 179.257812 C 28.449219 178.683594 27.613281 177.914062 26.945312 176.949219 C 26.199219 175.859375 25.808594 174.632812 25.4375 173.382812 C 25.140625 172.371094 24.757812 171.375 24.351562 170.402344 C 23.855469 169.21875 23.226562 168.113281 22.433594 167.097656 C 21.847656 166.335938 21.238281 165.59375 20.695312 164.796875 C 19.328125 162.789062 18.320312 160.609375 17.625 158.285156 C 17.167969 156.761719 16.871094 155.214844 16.703125 153.628906 C 16.644531 153.121094 16.636719 152.613281 16.601562 152.097656 C 16.59375 152.003906 16.566406 151.914062 16.550781 151.828125 C 16.550781 151.492188 16.550781 151.152344 16.550781 150.816406 C 16.578125 150.535156 16.617188 150.257812 16.644531 149.976562 C 16.730469 149.132812 16.804688 148.289062 16.921875 147.453125 C 17.109375 146.082031 17.464844 144.753906 17.914062 143.445312 C 18.445312 141.910156 19.117188 140.445312 19.945312 139.042969 C 20.6875 137.785156 21.527344 136.609375 22.476562 135.503906 C 23.363281 134.464844 24.335938 133.519531 25.378906 132.648438 C 26.859375 131.421875 28.464844 130.375 30.199219 129.527344 C 31.902344 128.691406 33.671875 128.066406 35.53125 127.652344 C 36.835938 127.359375 38.148438 127.164062 39.484375 127.105469 C 39.765625 127.09375 40.042969 127.046875 40.316406 127.011719 C 40.667969 127.019531 41 127.019531 41.339844 127.019531 Z M 41.339844 127.019531 "/><g style="fill:#ffffff;fill-opacity:1;"><g transform="translate(79.84861, 195.986354)"><path style="stroke:none" d="M 9.5625 -21.234375 L 13.375 -21.234375 L 15.765625 -14.1875 L 18.171875 -21.234375 L 22.015625 -21.234375 L 18.375 -11.546875 L 21.078125 -4.734375 L 27.109375 -21.28125 L 31.609375 -21.28125 L 22.9375 0 L 19.453125 0 L 15.765625 -8.9375 L 12.078125 0 L 8.609375 0 L 0 -21.28125 L 4.4375 -21.28125 L 10.5 -4.734375 L 13.140625 -11.546875 Z M 9.5625 -21.234375 "/></g></g><g style="fill:#ffffff;fill-opacity:1;"><g transform="translate(111.413909, 195.986354)"><path style="stroke:none" d="M 6.109375 0.296875 C 5.359375 0.296875 4.648438 0.171875 3.984375 -0.078125 C 3.328125 -0.328125 2.757812 -0.675781 2.28125 -1.125 C 1.800781 -1.570312 1.425781 -2.09375 1.15625 -2.6875 C 0.882812 -3.289062 0.75 -3.953125 0.75 -4.671875 C 0.75 -5.410156 0.910156 -6.09375 1.234375 -6.71875 C 1.566406 -7.351562 2.03125 -7.890625 2.625 -8.328125 C 3.21875 -8.773438 3.921875 -9.125 4.734375 -9.375 C 5.554688 -9.625 6.457031 -9.75 7.4375 -9.75 C 8.132812 -9.75 8.816406 -9.6875 9.484375 -9.5625 C 10.160156 -9.445312 10.757812 -9.28125 11.28125 -9.0625 L 11.28125 -9.953125 C 11.28125 -10.992188 10.984375 -11.789062 10.390625 -12.34375 C 9.796875 -12.90625 8.921875 -13.1875 7.765625 -13.1875 C 6.921875 -13.1875 6.097656 -13.035156 5.296875 -12.734375 C 4.503906 -12.441406 3.6875 -12.003906 2.84375 -11.421875 L 1.625 -13.96875 C 3.632812 -15.3125 5.8125 -15.984375 8.15625 -15.984375 C 10.414062 -15.984375 12.171875 -15.425781 13.421875 -14.3125 C 14.671875 -13.207031 15.296875 -11.601562 15.296875 -9.5 L 15.296875 -4.625 C 15.296875 -4.195312 15.367188 -3.894531 15.515625 -3.71875 C 15.660156 -3.539062 15.90625 -3.441406 16.25 -3.421875 L 16.25 0 C 15.570312 0.132812 14.984375 0.203125 14.484375 0.203125 C 13.722656 0.203125 13.132812 0.0351562 12.71875 -0.296875 C 12.3125 -0.640625 12.0625 -1.09375 11.96875 -1.65625 L 11.875 -2.515625 C 11.175781 -1.597656 10.328125 -0.898438 9.328125 -0.421875 C 8.328125 0.0546875 7.253906 0.296875 6.109375 0.296875 Z M 7.25 -2.640625 C 7.9375 -2.640625 8.582031 -2.757812 9.1875 -3 C 9.800781 -3.238281 10.273438 -3.554688 10.609375 -3.953125 C 11.054688 -4.296875 11.28125 -4.675781 11.28125 -5.09375 L 11.28125 -6.890625 C 10.789062 -7.078125 10.265625 -7.222656 9.703125 -7.328125 C 9.148438 -7.441406 8.613281 -7.5 8.09375 -7.5 C 7.050781 -7.5 6.203125 -7.265625 5.546875 -6.796875 C 4.890625 -6.328125 4.5625 -5.726562 4.5625 -5 C 4.5625 -4.320312 4.816406 -3.757812 5.328125 -3.3125 C 5.847656 -2.863281 6.488281 -2.640625 7.25 -2.640625 Z M 7.25 -2.640625 "/></g></g><g style="fill:#ffffff;fill-opacity:1;"><g transform="translate(128.620443, 195.986354)"><path style="stroke:none" d="M 11.1875 -12.234375 C 9.96875 -12.210938 8.878906 -11.976562 7.921875 -11.53125 C 6.960938 -11.082031 6.269531 -10.40625 5.84375 -9.5 L 5.84375 0 L 1.828125 0 L 1.828125 -15.71875 L 5.515625 -15.71875 L 5.515625 -12.359375 C 5.796875 -12.890625 6.125 -13.367188 6.5 -13.796875 C 6.882812 -14.234375 7.296875 -14.609375 7.734375 -14.921875 C 8.171875 -15.242188 8.613281 -15.488281 9.0625 -15.65625 C 9.519531 -15.832031 9.957031 -15.921875 10.375 -15.921875 C 10.59375 -15.921875 10.753906 -15.921875 10.859375 -15.921875 C 10.972656 -15.921875 11.082031 -15.910156 11.1875 -15.890625 Z M 11.1875 -12.234375 "/></g></g><g style="fill:#ffffff;fill-opacity:1;"><g transform="translate(140.221364, 195.986354)"><path style="stroke:none" d="M 21.3125 -15.71875 L 25.125 -15.71875 L 18.5625 0 L 15.265625 0 L 12.5625 -6.890625 L 9.890625 0 L 6.59375 0 L 0.0625 -15.71875 L 3.84375 -15.71875 L 8.515625 -3.78125 L 10.4375 -8.875 L 7.671875 -15.6875 L 10.921875 -15.6875 L 12.5625 -10.859375 L 14.25 -15.6875 L 17.484375 -15.6875 L 14.75 -8.875 L 16.640625 -3.78125 Z M 21.3125 -15.71875 "/></g></g><g style="fill:#ffffff;fill-opacity:1;"><g transform="translate(165.371688, 195.986354)"><path style="stroke:none" d="M 1.828125 0 L 1.828125 -15.71875 L 5.84375 -15.71875 L 5.84375 0 Z M 1.828125 -17.90625 L 1.828125 -21.890625 L 5.84375 -21.890625 L 5.84375 -17.90625 Z M 1.828125 -17.90625 "/></g></g><g style="fill:#ffffff;fill-opacity:1;"><g transform="translate(173.015711, 195.986354)"><path style="stroke:none" d="M 0.84375 -7.859375 C 0.84375 -8.953125 1.03125 -9.988281 1.40625 -10.96875 C 1.789062 -11.945312 2.34375 -12.804688 3.0625 -13.546875 C 3.78125 -14.285156 4.648438 -14.875 5.671875 -15.3125 C 6.691406 -15.757812 7.835938 -15.984375 9.109375 -15.984375 C 10.828125 -15.984375 12.289062 -15.613281 13.5 -14.875 C 14.71875 -14.132812 15.625 -13.164062 16.21875 -11.96875 L 12.296875 -10.765625 C 11.953125 -11.347656 11.5 -11.789062 10.9375 -12.09375 C 10.382812 -12.40625 9.765625 -12.5625 9.078125 -12.5625 C 8.503906 -12.5625 7.96875 -12.445312 7.46875 -12.21875 C 6.96875 -11.988281 6.53125 -11.664062 6.15625 -11.25 C 5.789062 -10.84375 5.503906 -10.347656 5.296875 -9.765625 C 5.085938 -9.191406 4.984375 -8.554688 4.984375 -7.859375 C 4.984375 -7.160156 5.09375 -6.519531 5.3125 -5.9375 C 5.53125 -5.351562 5.820312 -4.851562 6.1875 -4.4375 C 6.5625 -4.019531 7 -3.695312 7.5 -3.46875 C 8 -3.238281 8.523438 -3.125 9.078125 -3.125 C 9.804688 -3.125 10.472656 -3.300781 11.078125 -3.65625 C 11.691406 -4.019531 12.117188 -4.460938 12.359375 -4.984375 L 16.28125 -3.78125 C 15.738281 -2.582031 14.847656 -1.601562 13.609375 -0.84375 C 12.367188 -0.0820312 10.878906 0.296875 9.140625 0.296875 C 7.859375 0.296875 6.707031 0.078125 5.6875 -0.359375 C 4.675781 -0.796875 3.8125 -1.390625 3.09375 -2.140625 C 2.375 -2.890625 1.816406 -3.757812 1.421875 -4.75 C 1.035156 -5.738281 0.84375 -6.773438 0.84375 -7.859375 Z M 0.84375 -7.859375 "/></g></g><g style="fill:#ffffff;fill-opacity:1;"><g transform="translate(189.922479, 195.986354)"><path style="stroke:none" d="M 12.5625 0 L 8 -6.8125 L 5.84375 -4.671875 L 5.84375 0 L 1.828125 0 L 1.828125 -21.890625 L 5.84375 -21.890625 L 5.84375 -8.609375 L 12.140625 -15.6875 L 16.4375 -15.6875 L 10.578125 -9.03125 L 16.84375 0 Z M 12.5625 0 "/></g></g><g style="fill:#ffffff;fill-opacity:1;"><g transform="translate(79.84861, 160.73542)"><path style="stroke:none" d="M 16.984375 -1.859375 L 16.984375 0 L 2.671875 0 L 2.671875 -21.296875 L 16.703125 -21.296875 L 16.703125 -19.4375 L 4.765625 -19.4375 L 4.765625 -11.765625 L 15.1875 -11.765625 L 15.1875 -9.984375 L 4.765625 -9.984375 L 4.765625 -1.859375 Z M 16.984375 -1.859375 "/></g></g><g style="fill:#ffffff;fill-opacity:1;"><g transform="translate(98.111514, 160.73542)"><path style="stroke:none" d="M 3 0 L 3 -14.015625 L 0.84375 -14.015625 L 0.84375 -15.625 L 3 -15.625 L 3 -16.046875 C 3 -17.972656 3.40625 -19.476562 4.21875 -20.5625 C 5.039062 -21.65625 6.164062 -22.203125 7.59375 -22.203125 C 8.207031 -22.203125 8.804688 -22.109375 9.390625 -21.921875 C 9.972656 -21.742188 10.472656 -21.503906 10.890625 -21.203125 L 10.265625 -19.734375 C 9.984375 -19.953125 9.632812 -20.125 9.21875 -20.25 C 8.8125 -20.375 8.398438 -20.4375 7.984375 -20.4375 C 7.023438 -20.4375 6.296875 -20.0625 5.796875 -19.3125 C 5.296875 -18.570312 5.046875 -17.503906 5.046875 -16.109375 L 5.046875 -15.625 L 9.359375 -15.625 L 9.359375 -14.015625 L 5.046875 -14.015625 L 5.046875 0 Z M 3 0 "/></g></g><g style="fill:#ffffff;fill-opacity:1;"><g transform="translate(108.007666, 160.73542)"><path style="stroke:none" d="M 3 0 L 3 -14.015625 L 0.84375 -14.015625 L 0.84375 -15.625 L 3 -15.625 L 3 -16.046875 C 3 -17.972656 3.40625 -19.476562 4.21875 -20.5625 C 5.039062 -21.65625 6.164062 -22.203125 7.59375 -22.203125 C 8.207031 -22.203125 8.804688 -22.109375 9.390625 -21.921875 C 9.972656 -21.742188 10.472656 -21.503906 10.890625 -21.203125 L 10.265625 -19.734375 C 9.984375 -19.953125 9.632812 -20.125 9.21875 -20.25 C 8.8125 -20.375 8.398438 -20.4375 7.984375 -20.4375 C 7.023438 -20.4375 6.296875 -20.0625 5.796875 -19.3125 C 5.296875 -18.570312 5.046875 -17.503906 5.046875 -16.109375 L 5.046875 -15.625 L 9.359375 -15.625 L 9.359375 -14.015625 L 5.046875 -14.015625 L 5.046875 0 Z M 3 0 "/></g></g><g style="fill:#ffffff;fill-opacity:1;"><g transform="translate(117.903818, 160.73542)"><path style="stroke:none" d="M 9 0.296875 C 7.863281 0.296875 6.816406 0.0820312 5.859375 -0.34375 C 4.910156 -0.769531 4.085938 -1.359375 3.390625 -2.109375 C 2.691406 -2.859375 2.144531 -3.722656 1.75 -4.703125 C 1.363281 -5.691406 1.171875 -6.742188 1.171875 -7.859375 C 1.171875 -8.960938 1.363281 -10 1.75 -10.96875 C 2.144531 -11.9375 2.6875 -12.785156 3.375 -13.515625 C 4.0625 -14.242188 4.882812 -14.820312 5.84375 -15.25 C 6.8125 -15.6875 7.851562 -15.90625 8.96875 -15.90625 C 10.113281 -15.90625 11.160156 -15.6875 12.109375 -15.25 C 13.054688 -14.820312 13.867188 -14.238281 14.546875 -13.5 C 15.222656 -12.757812 15.75 -11.910156 16.125 -10.953125 C 16.507812 -9.992188 16.703125 -8.972656 16.703125 -7.890625 C 16.703125 -7.734375 16.703125 -7.570312 16.703125 -7.40625 C 16.703125 -7.25 16.695312 -7.140625 16.6875 -7.078125 L 3.296875 -7.078125 C 3.359375 -6.234375 3.550781 -5.457031 3.875 -4.75 C 4.207031 -4.039062 4.632812 -3.425781 5.15625 -2.90625 C 5.675781 -2.382812 6.269531 -1.976562 6.9375 -1.6875 C 7.613281 -1.40625 8.332031 -1.265625 9.09375 -1.265625 C 9.59375 -1.265625 10.09375 -1.332031 10.59375 -1.46875 C 11.09375 -1.613281 11.550781 -1.804688 11.96875 -2.046875 C 12.382812 -2.285156 12.765625 -2.578125 13.109375 -2.921875 C 13.453125 -3.273438 13.710938 -3.660156 13.890625 -4.078125 L 15.65625 -3.59375 C 15.414062 -3.019531 15.078125 -2.492188 14.640625 -2.015625 C 14.203125 -1.546875 13.691406 -1.132812 13.109375 -0.78125 C 12.523438 -0.4375 11.882812 -0.171875 11.1875 0.015625 C 10.488281 0.203125 9.757812 0.296875 9 0.296875 Z M 14.765625 -8.640625 C 14.703125 -9.484375 14.503906 -10.25 14.171875 -10.9375 C 13.847656 -11.625 13.429688 -12.21875 12.921875 -12.71875 C 12.410156 -13.21875 11.816406 -13.609375 11.140625 -13.890625 C 10.472656 -14.171875 9.757812 -14.3125 9 -14.3125 C 8.238281 -14.3125 7.515625 -14.171875 6.828125 -13.890625 C 6.148438 -13.609375 5.554688 -13.21875 5.046875 -12.71875 C 4.546875 -12.21875 4.140625 -11.617188 3.828125 -10.921875 C 3.515625 -10.222656 3.328125 -9.460938 3.265625 -8.640625 Z M 14.765625 -8.640625 "/></g></g><g style="fill:#ffffff;fill-opacity:1;"><g transform="translate(135.506981, 160.73542)"><path style="stroke:none" d="M 1.171875 -7.859375 C 1.171875 -8.960938 1.359375 -10.003906 1.734375 -10.984375 C 2.117188 -11.960938 2.65625 -12.816406 3.34375 -13.546875 C 4.03125 -14.273438 4.851562 -14.847656 5.8125 -15.265625 C 6.78125 -15.691406 7.84375 -15.90625 9 -15.90625 C 10.476562 -15.90625 11.765625 -15.566406 12.859375 -14.890625 C 13.960938 -14.222656 14.796875 -13.320312 15.359375 -12.1875 L 13.375 -11.546875 C 12.9375 -12.347656 12.320312 -12.972656 11.53125 -13.421875 C 10.738281 -13.867188 9.863281 -14.09375 8.90625 -14.09375 C 8.101562 -14.09375 7.359375 -13.929688 6.671875 -13.609375 C 5.984375 -13.296875 5.382812 -12.863281 4.875 -12.3125 C 4.363281 -11.757812 3.960938 -11.101562 3.671875 -10.34375 C 3.378906 -9.582031 3.234375 -8.753906 3.234375 -7.859375 C 3.234375 -6.984375 3.382812 -6.15625 3.6875 -5.375 C 3.988281 -4.59375 4.398438 -3.914062 4.921875 -3.34375 C 5.441406 -2.769531 6.046875 -2.316406 6.734375 -1.984375 C 7.421875 -1.660156 8.15625 -1.5 8.9375 -1.5 C 9.4375 -1.5 9.929688 -1.566406 10.421875 -1.703125 C 10.910156 -1.847656 11.363281 -2.046875 11.78125 -2.296875 C 12.207031 -2.546875 12.566406 -2.828125 12.859375 -3.140625 C 13.160156 -3.460938 13.375 -3.804688 13.5 -4.171875 L 15.515625 -3.5625 C 15.296875 -3.007812 14.972656 -2.492188 14.546875 -2.015625 C 14.128906 -1.546875 13.632812 -1.132812 13.0625 -0.78125 C 12.488281 -0.4375 11.859375 -0.171875 11.171875 0.015625 C 10.484375 0.203125 9.769531 0.296875 9.03125 0.296875 C 7.882812 0.296875 6.832031 0.0820312 5.875 -0.34375 C 4.914062 -0.769531 4.085938 -1.359375 3.390625 -2.109375 C 2.691406 -2.859375 2.144531 -3.722656 1.75 -4.703125 C 1.363281 -5.691406 1.171875 -6.742188 1.171875 -7.859375 Z M 1.171875 -7.859375 "/></g></g><g style="fill:#ffffff;fill-opacity:1;"><g transform="translate(151.970588, 160.73542)"><path style="stroke:none" d="M 9.75 -0.75 C 9.625 -0.6875 9.445312 -0.601562 9.21875 -0.5 C 8.988281 -0.40625 8.722656 -0.304688 8.421875 -0.203125 C 8.128906 -0.109375 7.789062 -0.0195312 7.40625 0.0625 C 7.03125 0.144531 6.628906 0.1875 6.203125 0.1875 C 5.765625 0.1875 5.34375 0.125 4.9375 0 C 4.539062 -0.125 4.191406 -0.3125 3.890625 -0.5625 C 3.597656 -0.8125 3.359375 -1.125 3.171875 -1.5 C 2.992188 -1.875 2.90625 -2.3125 2.90625 -2.8125 L 2.90625 -14.015625 L 0.75 -14.015625 L 0.75 -15.625 L 2.90625 -15.625 L 2.90625 -20.90625 L 4.953125 -20.90625 L 4.953125 -15.625 L 8.546875 -15.625 L 8.546875 -14.015625 L 4.953125 -14.015625 L 4.953125 -3.390625 C 4.992188 -2.804688 5.195312 -2.378906 5.5625 -2.109375 C 5.9375 -1.835938 6.363281 -1.703125 6.84375 -1.703125 C 7.414062 -1.703125 7.921875 -1.796875 8.359375 -1.984375 C 8.804688 -2.179688 9.085938 -2.320312 9.203125 -2.40625 Z M 9.75 -0.75 "/></g></g><g style="fill:#ffffff;fill-opacity:1;"><g transform="translate(162.01668, 160.73542)"><path style="stroke:none" d="M 2.25 0 L 2.25 -15.625 L 4.296875 -15.625 L 4.296875 0 Z M 2.25 -18.90625 L 2.25 -21.90625 L 4.296875 -21.90625 L 4.296875 -18.90625 Z M 2.25 -18.90625 "/></g></g><g style="fill:#ffffff;fill-opacity:1;"><g transform="translate(168.55414, 160.73542)"><path style="stroke:none" d="M 6.9375 0 L 0.5625 -15.625 L 2.671875 -15.625 L 8.046875 -1.890625 L 13.4375 -15.625 L 15.421875 -15.625 L 9.0625 0 Z M 6.9375 0 "/></g></g><g style="fill:#ffffff;fill-opacity:1;"><g transform="translate(184.537931, 160.73542)"><path style="stroke:none" d="M 9 0.296875 C 7.863281 0.296875 6.816406 0.0820312 5.859375 -0.34375 C 4.910156 -0.769531 4.085938 -1.359375 3.390625 -2.109375 C 2.691406 -2.859375 2.144531 -3.722656 1.75 -4.703125 C 1.363281 -5.691406 1.171875 -6.742188 1.171875 -7.859375 C 1.171875 -8.960938 1.363281 -10 1.75 -10.96875 C 2.144531 -11.9375 2.6875 -12.785156 3.375 -13.515625 C 4.0625 -14.242188 4.882812 -14.820312 5.84375 -15.25 C 6.8125 -15.6875 7.851562 -15.90625 8.96875 -15.90625 C 10.113281 -15.90625 11.160156 -15.6875 12.109375 -15.25 C 13.054688 -14.820312 13.867188 -14.238281 14.546875 -13.5 C 15.222656 -12.757812 15.75 -11.910156 16.125 -10.953125 C 16.507812 -9.992188 16.703125 -8.972656 16.703125 -7.890625 C 16.703125 -7.734375 16.703125 -7.570312 16.703125 -7.40625 C 16.703125 -7.25 16.695312 -7.140625 16.6875 -7.078125 L 3.296875 -7.078125 C 3.359375 -6.234375 3.550781 -5.457031 3.875 -4.75 C 4.207031 -4.039062 4.632812 -3.425781 5.15625 -2.90625 C 5.675781 -2.382812 6.269531 -1.976562 6.9375 -1.6875 C 7.613281 -1.40625 8.332031 -1.265625 9.09375 -1.265625 C 9.59375 -1.265625 10.09375 -1.332031 10.59375 -1.46875 C 11.09375 -1.613281 11.550781 -1.804688 11.96875 -2.046875 C 12.382812 -2.285156 12.765625 -2.578125 13.109375 -2.921875 C 13.453125 -3.273438 13.710938 -3.660156 13.890625 -4.078125 L 15.65625 -3.59375 C 15.414062 -3.019531 15.078125 -2.492188 14.640625 -2.015625 C 14.203125 -1.546875 13.691406 -1.132812 13.109375 -0.78125 C 12.523438 -0.4375 11.882812 -0.171875 11.1875 0.015625 C 10.488281 0.203125 9.757812 0.296875 9 0.296875 Z M 14.765625 -8.640625 C 14.703125 -9.484375 14.503906 -10.25 14.171875 -10.9375 C 13.847656 -11.625 13.429688 -12.21875 12.921875 -12.71875 C 12.410156 -13.21875 11.816406 -13.609375 11.140625 -13.890625 C 10.472656 -14.171875 9.757812 -14.3125 9 -14.3125 C 8.238281 -14.3125 7.515625 -14.171875 6.828125 -13.890625 C 6.148438 -13.609375 5.554688 -13.21875 5.046875 -12.71875 C 4.546875 -12.21875 4.140625 -11.617188 3.828125 -10.921875 C 3.515625 -10.222656 3.328125 -9.460938 3.265625 -8.640625 Z M 14.765625 -8.640625 "/></g></g><g style="fill:#ffffff;fill-opacity:1;"><g transform="translate(202.141094, 160.73542)"><path style="stroke:none" d=""/></g></g><g style="fill:#ffffff;fill-opacity:1;"><g transform="translate(209.788127, 160.73542)"><path style="stroke:none" d="M 9.265625 -21.296875 L 11.046875 -21.296875 L 19.890625 0 L 17.671875 0 L 14.90625 -6.65625 L 5.34375 -6.65625 L 2.609375 0 L 0.359375 0 Z M 14.4375 -8.3125 L 10.140625 -18.84375 L 5.796875 -8.3125 Z M 14.4375 -8.3125 "/></g></g><g style="fill:#ffffff;fill-opacity:1;"><g transform="translate(230.060247, 160.73542)"><path style="stroke:none" d="M 2.34375 -21.90625 L 4.375 -21.90625 L 4.375 -3.546875 C 4.375 -2.960938 4.535156 -2.503906 4.859375 -2.171875 C 5.179688 -1.847656 5.628906 -1.6875 6.203125 -1.6875 C 6.429688 -1.6875 6.691406 -1.710938 6.984375 -1.765625 C 7.285156 -1.828125 7.566406 -1.910156 7.828125 -2.015625 L 8.1875 -0.359375 C 7.8125 -0.203125 7.347656 -0.0703125 6.796875 0.03125 C 6.242188 0.132812 5.769531 0.1875 5.375 0.1875 C 4.425781 0.1875 3.679688 -0.078125 3.140625 -0.609375 C 2.609375 -1.140625 2.34375 -1.882812 2.34375 -2.84375 Z M 2.34375 -21.90625 "/></g></g><g style="fill:#ffffff;fill-opacity:1;"><g transform="translate(238.21708, 160.73542)"><path style="stroke:none" d="M 9.75 -0.75 C 9.625 -0.6875 9.445312 -0.601562 9.21875 -0.5 C 8.988281 -0.40625 8.722656 -0.304688 8.421875 -0.203125 C 8.128906 -0.109375 7.789062 -0.0195312 7.40625 0.0625 C 7.03125 0.144531 6.628906 0.1875 6.203125 0.1875 C 5.765625 0.1875 5.34375 0.125 4.9375 0 C 4.539062 -0.125 4.191406 -0.3125 3.890625 -0.5625 C 3.597656 -0.8125 3.359375 -1.125 3.171875 -1.5 C 2.992188 -1.875 2.90625 -2.3125 2.90625 -2.8125 L 2.90625 -14.015625 L 0.75 -14.015625 L 0.75 -15.625 L 2.90625 -15.625 L 2.90625 -20.90625 L 4.953125 -20.90625 L 4.953125 -15.625 L 8.546875 -15.625 L 8.546875 -14.015625 L 4.953125 -14.015625 L 4.953125 -3.390625 C 4.992188 -2.804688 5.195312 -2.378906 5.5625 -2.109375 C 5.9375 -1.835938 6.363281 -1.703125 6.84375 -1.703125 C 7.414062 -1.703125 7.921875 -1.796875 8.359375 -1.984375 C 8.804688 -2.179688 9.085938 -2.320312 9.203125 -2.40625 Z M 9.75 -0.75 "/></g></g><g style="fill:#ffffff;fill-opacity:1;"><g transform="translate(248.263172, 160.73542)"><path style="stroke:none" d="M 10.046875 -13.828125 C 8.671875 -13.785156 7.472656 -13.40625 6.453125 -12.6875 C 5.429688 -11.96875 4.710938 -10.976562 4.296875 -9.71875 L 4.296875 0 L 2.25 0 L 2.25 -15.625 L 4.171875 -15.625 L 4.171875 -11.875 C 4.753906 -13.082031 5.535156 -14.023438 6.515625 -14.703125 C 7.492188 -15.378906 8.539062 -15.71875 9.65625 -15.71875 C 9.820312 -15.71875 9.953125 -15.707031 10.046875 -15.6875 Z M 10.046875 -13.828125 "/></g></g><g style="fill:#ffffff;fill-opacity:1;"><g transform="translate(258.789081, 160.73542)"><path style="stroke:none" d="M 7.140625 0.296875 C 5.441406 0.296875 4.175781 -0.265625 3.34375 -1.390625 C 2.507812 -2.523438 2.09375 -4.210938 2.09375 -6.453125 L 2.09375 -15.625 L 4.140625 -15.625 L 4.140625 -6.8125 C 4.140625 -3.269531 5.347656 -1.5 7.765625 -1.5 C 8.367188 -1.5 8.957031 -1.597656 9.53125 -1.796875 C 10.113281 -1.992188 10.648438 -2.28125 11.140625 -2.65625 C 11.628906 -3.039062 12.066406 -3.492188 12.453125 -4.015625 C 12.847656 -4.535156 13.164062 -5.128906 13.40625 -5.796875 L 13.40625 -15.625 L 15.453125 -15.625 L 15.453125 -2.640625 C 15.453125 -2.078125 15.691406 -1.796875 16.171875 -1.796875 L 16.171875 0 C 15.929688 0.0390625 15.734375 0.0625 15.578125 0.0625 C 15.429688 0.0625 15.328125 0.0625 15.265625 0.0625 C 14.785156 0.0390625 14.394531 -0.128906 14.09375 -0.453125 C 13.800781 -0.773438 13.65625 -1.203125 13.65625 -1.734375 L 13.65625 -3.546875 C 12.96875 -2.316406 12.039062 -1.367188 10.875 -0.703125 C 9.707031 -0.0351562 8.460938 0.296875 7.140625 0.296875 Z M 7.140625 0.296875 "/></g></g><g style="fill:#ffffff;fill-opacity:1;"><g transform="translate(276.602152, 160.73542)"><path style="stroke:none" d="M 2.25 0 L 2.25 -15.625 L 4.296875 -15.625 L 4.296875 0 Z M 2.25 -18.90625 L 2.25 -21.90625 L 4.296875 -21.90625 L 4.296875 -18.90625 Z M 2.25 -18.90625 "/></g></g><g style="fill:#ffffff;fill-opacity:1;"><g transform="translate(283.139612, 160.73542)"><path style="stroke:none" d="M 7.4375 0.296875 C 6.21875 0.296875 5.023438 0.0976562 3.859375 -0.296875 C 2.703125 -0.703125 1.707031 -1.285156 0.875 -2.046875 L 1.796875 -3.421875 C 2.679688 -2.703125 3.578125 -2.160156 4.484375 -1.796875 C 5.390625 -1.441406 6.363281 -1.265625 7.40625 -1.265625 C 8.664062 -1.265625 9.671875 -1.519531 10.421875 -2.03125 C 11.171875 -2.539062 11.546875 -3.265625 11.546875 -4.203125 C 11.546875 -4.640625 11.445312 -5.003906 11.25 -5.296875 C 11.050781 -5.585938 10.753906 -5.84375 10.359375 -6.0625 C 9.972656 -6.28125 9.484375 -6.472656 8.890625 -6.640625 C 8.304688 -6.816406 7.625 -6.992188 6.84375 -7.171875 C 5.9375 -7.390625 5.15625 -7.609375 4.5 -7.828125 C 3.84375 -8.046875 3.296875 -8.296875 2.859375 -8.578125 C 2.429688 -8.859375 2.113281 -9.203125 1.90625 -9.609375 C 1.695312 -10.023438 1.59375 -10.539062 1.59375 -11.15625 C 1.59375 -11.9375 1.742188 -12.625 2.046875 -13.21875 C 2.359375 -13.820312 2.78125 -14.316406 3.3125 -14.703125 C 3.84375 -15.097656 4.460938 -15.394531 5.171875 -15.59375 C 5.878906 -15.800781 6.632812 -15.90625 7.4375 -15.90625 C 8.632812 -15.90625 9.722656 -15.707031 10.703125 -15.3125 C 11.691406 -14.925781 12.484375 -14.410156 13.078125 -13.765625 L 12.09375 -12.5625 C 11.507812 -13.164062 10.800781 -13.617188 9.96875 -13.921875 C 9.144531 -14.222656 8.28125 -14.375 7.375 -14.375 C 6.832031 -14.375 6.332031 -14.316406 5.875 -14.203125 C 5.414062 -14.097656 5.007812 -13.921875 4.65625 -13.671875 C 4.3125 -13.429688 4.039062 -13.125 3.84375 -12.75 C 3.644531 -12.382812 3.546875 -11.953125 3.546875 -11.453125 C 3.546875 -11.035156 3.613281 -10.695312 3.75 -10.4375 C 3.882812 -10.175781 4.113281 -9.953125 4.4375 -9.765625 C 4.757812 -9.578125 5.164062 -9.40625 5.65625 -9.25 C 6.144531 -9.101562 6.738281 -8.953125 7.4375 -8.796875 C 8.4375 -8.554688 9.316406 -8.3125 10.078125 -8.0625 C 10.835938 -7.820312 11.472656 -7.539062 11.984375 -7.21875 C 12.492188 -6.90625 12.878906 -6.519531 13.140625 -6.0625 C 13.398438 -5.601562 13.53125 -5.039062 13.53125 -4.375 C 13.53125 -2.9375 12.976562 -1.796875 11.875 -0.953125 C 10.78125 -0.117188 9.300781 0.296875 7.4375 0.296875 Z M 7.4375 0.296875 "/></g></g><g style="fill:#ffffff;fill-opacity:1;"><g transform="translate(297.743943, 160.73542)"><path style="stroke:none" d="M 25.5 0 L 23.453125 0 L 23.453125 -8.734375 C 23.453125 -10.546875 23.160156 -11.882812 22.578125 -12.75 C 22.003906 -13.613281 21.148438 -14.046875 20.015625 -14.046875 C 19.410156 -14.046875 18.84375 -13.929688 18.3125 -13.703125 C 17.78125 -13.484375 17.289062 -13.175781 16.84375 -12.78125 C 16.394531 -12.382812 16 -11.910156 15.65625 -11.359375 C 15.320312 -10.804688 15.0625 -10.203125 14.875 -9.546875 L 14.875 0 L 12.84375 0 L 12.84375 -8.734375 C 12.84375 -10.585938 12.5625 -11.9375 12 -12.78125 C 11.4375 -13.625 10.578125 -14.046875 9.421875 -14.046875 C 8.242188 -14.046875 7.191406 -13.632812 6.265625 -12.8125 C 5.347656 -11.988281 4.691406 -10.90625 4.296875 -9.5625 L 4.296875 0 L 2.25 0 L 2.25 -15.625 L 4.109375 -15.625 L 4.109375 -12.09375 C 4.742188 -13.289062 5.582031 -14.222656 6.625 -14.890625 C 7.664062 -15.566406 8.816406 -15.90625 10.078125 -15.90625 C 11.398438 -15.90625 12.457031 -15.535156 13.25 -14.796875 C 14.039062 -14.054688 14.523438 -13.082031 14.703125 -11.875 C 16.160156 -14.5625 18.171875 -15.90625 20.734375 -15.90625 C 21.609375 -15.90625 22.347656 -15.742188 22.953125 -15.421875 C 23.566406 -15.097656 24.054688 -14.640625 24.421875 -14.046875 C 24.796875 -13.460938 25.066406 -12.753906 25.234375 -11.921875 C 25.410156 -11.097656 25.5 -10.175781 25.5 -9.15625 Z M 25.5 0 "/></g></g></g></svg>