<svg xmlns="http://www.w3.org/2000/svg" xmlns:xlink="http://www.w3.org/1999/xlink" width="500" zoomAndPan="magnify" viewBox="0 0 375 374.999991" height="500" preserveAspectRatio="xMidYMid meet" version="1.2"><defs><clipPath id="381b4abd40"><path d="M 0 127.570312 L 375 127.570312 L 375 247.429688 L 0 247.429688 Z M 0 127.570312 "/></clipPath></defs><g id="502d5055fa"><g clip-rule="nonzero" clip-path="url(#381b4abd40)"><path style=" stroke:none;fill-rule:nonzero;fill:#1b5266;fill-opacity:1;" d="M 0 127.570312 L 375.027344 127.570312 L 375.027344 247.429688 L 0 247.429688 Z M 0 127.570312 "/></g><g style="fill:#ffffff;fill-opacity:1;"><g transform="translate(89.632923, 202.124987)"><path style="stroke:none" d="M 25.515625 -5.4375 L 25.515625 0 L 3.328125 0 L 3.328125 -31.953125 L 25.109375 -31.953125 L 25.109375 -26.5 L 9.546875 -26.5 L 9.546875 -18.8125 L 23 -18.8125 L 23 -13.765625 L 9.546875 -13.765625 L 9.546875 -5.4375 Z M 25.515625 -5.4375 "/></g></g><g style="fill:#ffffff;fill-opacity:1;"><g transform="translate(116.670916, 202.124987)"><path style="stroke:none" d="M 12.421875 -31.953125 L 17.90625 -31.953125 L 30.0625 0 L 23.671875 0 L 20.703125 -7.96875 L 9.546875 -7.96875 L 6.609375 0 L 0.21875 0 Z M 19.578125 -12.328125 L 15.171875 -24.890625 L 10.578125 -12.328125 Z M 19.578125 -12.328125 "/></g></g><g style="fill:#ffffff;fill-opacity:1;"><g transform="translate(146.90308, 202.124987)"><path style="stroke:none" d=""/></g></g><g style="fill:#ffffff;fill-opacity:1;"><g transform="translate(157.700283, 202.124987)"><path style="stroke:none" d="M 14.359375 -31.859375 L 20.0625 -31.859375 L 23.671875 -21.28125 L 27.265625 -31.859375 L 33.03125 -31.859375 L 27.578125 -17.328125 L 31.640625 -7.109375 L 40.6875 -31.953125 L 47.4375 -31.953125 L 34.421875 0 L 29.203125 0 L 23.671875 -13.40625 L 18.140625 0 L 12.921875 0 L 0 -31.953125 L 6.65625 -31.953125 L 15.75 -7.109375 L 19.703125 -17.328125 Z M 14.359375 -31.859375 "/></g></g><g style="fill:#ffffff;fill-opacity:1;"><g transform="translate(205.072994, 202.124987)"><path style="stroke:none" d="M 9.1875 0.453125 C 8.039062 0.453125 6.972656 0.265625 5.984375 -0.109375 C 4.992188 -0.484375 4.140625 -1.007812 3.421875 -1.6875 C 2.703125 -2.363281 2.140625 -3.148438 1.734375 -4.046875 C 1.328125 -4.953125 1.125 -5.941406 1.125 -7.015625 C 1.125 -8.128906 1.367188 -9.15625 1.859375 -10.09375 C 2.359375 -11.039062 3.050781 -11.84375 3.9375 -12.5 C 4.820312 -13.164062 5.878906 -13.6875 7.109375 -14.0625 C 8.335938 -14.4375 9.6875 -14.625 11.15625 -14.625 C 12.207031 -14.625 13.234375 -14.53125 14.234375 -14.34375 C 15.242188 -14.164062 16.140625 -13.914062 16.921875 -13.59375 L 16.921875 -14.9375 C 16.921875 -16.5 16.476562 -17.695312 15.59375 -18.53125 C 14.707031 -19.375 13.394531 -19.796875 11.65625 -19.796875 C 10.394531 -19.796875 9.164062 -19.570312 7.96875 -19.125 C 6.769531 -18.675781 5.539062 -18.015625 4.28125 -17.140625 L 2.4375 -20.96875 C 5.457031 -22.976562 8.722656 -23.984375 12.234375 -23.984375 C 15.628906 -23.984375 18.265625 -23.148438 20.140625 -21.484375 C 22.015625 -19.816406 22.953125 -17.410156 22.953125 -14.265625 L 22.953125 -6.9375 C 22.953125 -6.300781 23.0625 -5.847656 23.28125 -5.578125 C 23.507812 -5.304688 23.878906 -5.15625 24.390625 -5.125 L 24.390625 0 C 23.367188 0.207031 22.484375 0.3125 21.734375 0.3125 C 20.597656 0.3125 19.722656 0.0546875 19.109375 -0.453125 C 18.492188 -0.960938 18.109375 -1.632812 17.953125 -2.46875 L 17.8125 -3.78125 C 16.769531 -2.394531 15.5 -1.34375 14 -0.625 C 12.5 0.09375 10.894531 0.453125 9.1875 0.453125 Z M 10.890625 -3.953125 C 11.910156 -3.953125 12.878906 -4.132812 13.796875 -4.5 C 14.710938 -4.863281 15.425781 -5.34375 15.9375 -5.9375 C 16.59375 -6.445312 16.921875 -7.019531 16.921875 -7.65625 L 16.921875 -10.34375 C 16.203125 -10.613281 15.421875 -10.832031 14.578125 -11 C 13.734375 -11.164062 12.925781 -11.25 12.15625 -11.25 C 10.59375 -11.25 9.316406 -10.894531 8.328125 -10.1875 C 7.335938 -9.488281 6.84375 -8.597656 6.84375 -7.515625 C 6.84375 -6.492188 7.234375 -5.644531 8.015625 -4.96875 C 8.796875 -4.289062 9.753906 -3.953125 10.890625 -3.953125 Z M 10.890625 -3.953125 "/></g></g><g style="fill:#ffffff;fill-opacity:1;"><g transform="translate(230.8963, 202.124987)"><path style="stroke:none" d="M 16.78125 -18.359375 C 14.957031 -18.328125 13.320312 -17.972656 11.875 -17.296875 C 10.4375 -16.628906 9.40625 -15.617188 8.78125 -14.265625 L 8.78125 0 L 2.75 0 L 2.75 -23.578125 L 8.28125 -23.578125 L 8.28125 -18.546875 C 8.695312 -19.347656 9.191406 -20.070312 9.765625 -20.71875 C 10.335938 -21.363281 10.953125 -21.925781 11.609375 -22.40625 C 12.265625 -22.882812 12.929688 -23.25 13.609375 -23.5 C 14.285156 -23.757812 14.9375 -23.890625 15.5625 -23.890625 C 15.894531 -23.890625 16.144531 -23.890625 16.3125 -23.890625 C 16.476562 -23.890625 16.632812 -23.875 16.78125 -23.84375 Z M 16.78125 -18.359375 "/></g></g><g style="fill:#ffffff;fill-opacity:1;"><g transform="translate(248.306779, 202.124987)"><path style="stroke:none" d="M 32 -23.578125 L 37.703125 -23.578125 L 27.859375 0 L 22.90625 0 L 18.859375 -10.34375 L 14.84375 0 L 9.90625 0 L 0.09375 -23.578125 L 5.765625 -23.578125 L 12.78125 -5.671875 L 15.65625 -13.3125 L 11.515625 -23.53125 L 16.375 -23.53125 L 18.859375 -16.296875 L 21.375 -23.53125 L 26.234375 -23.53125 L 22.140625 -13.3125 L 24.96875 -5.671875 Z M 32 -23.578125 "/></g></g><g style="fill:#ffffff;fill-opacity:1;"><g transform="translate(286.051978, 202.124987)"><path style="stroke:none" d="M 2.75 0 L 2.75 -23.578125 L 8.78125 -23.578125 L 8.78125 0 Z M 2.75 -26.859375 L 2.75 -32.84375 L 8.78125 -32.84375 L 8.78125 -26.859375 Z M 2.75 -26.859375 "/></g></g><g style="fill:#ffffff;fill-opacity:1;"><g transform="translate(297.524015, 202.124987)"><path style="stroke:none" d="M 1.265625 -11.796875 C 1.265625 -13.441406 1.546875 -15 2.109375 -16.46875 C 2.679688 -17.9375 3.503906 -19.222656 4.578125 -20.328125 C 5.660156 -21.441406 6.96875 -22.328125 8.5 -22.984375 C 10.03125 -23.648438 11.757812 -23.984375 13.6875 -23.984375 C 16.257812 -23.984375 18.453125 -23.425781 20.265625 -22.3125 C 22.085938 -21.207031 23.445312 -19.753906 24.34375 -17.953125 L 18.453125 -16.15625 C 17.941406 -17.019531 17.265625 -17.6875 16.421875 -18.15625 C 15.585938 -18.625 14.660156 -18.859375 13.640625 -18.859375 C 12.765625 -18.859375 11.953125 -18.679688 11.203125 -18.328125 C 10.453125 -17.984375 9.800781 -17.503906 9.25 -16.890625 C 8.695312 -16.273438 8.257812 -15.53125 7.9375 -14.65625 C 7.625 -13.789062 7.46875 -12.835938 7.46875 -11.796875 C 7.46875 -10.742188 7.628906 -9.78125 7.953125 -8.90625 C 8.285156 -8.039062 8.726562 -7.289062 9.28125 -6.65625 C 9.84375 -6.03125 10.5 -5.546875 11.25 -5.203125 C 12 -4.859375 12.796875 -4.6875 13.640625 -4.6875 C 14.710938 -4.6875 15.707031 -4.953125 16.625 -5.484375 C 17.539062 -6.023438 18.179688 -6.6875 18.546875 -7.46875 L 24.4375 -5.671875 C 23.625 -3.867188 22.285156 -2.394531 20.421875 -1.25 C 18.566406 -0.113281 16.332031 0.453125 13.71875 0.453125 C 11.800781 0.453125 10.078125 0.125 8.546875 -0.53125 C 7.015625 -1.195312 5.707031 -2.09375 4.625 -3.21875 C 3.550781 -4.34375 2.722656 -5.644531 2.140625 -7.125 C 1.554688 -8.613281 1.265625 -10.171875 1.265625 -11.796875 Z M 1.265625 -11.796875 "/></g></g><g style="fill:#ffffff;fill-opacity:1;"><g transform="translate(322.897419, 202.124987)"><path style="stroke:none" d="M 18.859375 0 L 12.015625 -10.21875 L 8.78125 -7.015625 L 8.78125 0 L 2.75 0 L 2.75 -32.84375 L 8.78125 -32.84375 L 8.78125 -12.921875 L 18.21875 -23.53125 L 24.65625 -23.53125 L 15.890625 -13.546875 L 25.296875 0 Z M 18.859375 0 "/></g></g><path style=" stroke:none;fill-rule:nonzero;fill:#ffffff;fill-opacity:1;" d="M 44.816406 148.84375 C 44.910156 148.859375 45.011719 148.894531 45.105469 148.894531 C 47.085938 148.988281 49.039062 149.273438 50.945312 149.824219 C 53.449219 150.542969 55.777344 151.640625 57.925781 153.113281 C 59.558594 154.234375 61.042969 155.519531 62.351562 157.015625 C 63.605469 158.453125 64.746094 159.980469 65.601562 161.695312 C 66.078125 162.644531 66.542969 163.605469 66.933594 164.59375 C 67.523438 166.082031 67.929688 167.636719 68.183594 169.226562 C 68.410156 170.636719 68.546875 172.054688 68.515625 173.484375 C 68.496094 174.378906 68.394531 175.277344 68.3125 176.171875 C 68.175781 177.691406 67.855469 179.171875 67.414062 180.625 C 67.101562 181.65625 66.730469 182.675781 66.296875 183.664062 C 65.863281 184.664062 65.355469 185.636719 64.816406 186.589844 C 64.164062 187.753906 63.359375 188.804688 62.496094 189.816406 C 61.582031 190.882812 60.921875 192.105469 60.355469 193.390625 C 59.738281 194.792969 59.3125 196.25 59.019531 197.75 C 58.722656 199.28125 58.613281 200.828125 58.605469 202.390625 C 58.601562 203.609375 58.246094 204.730469 57.582031 205.761719 C 56.816406 206.945312 55.761719 207.824219 54.566406 208.535156 C 54.230469 208.734375 53.882812 208.898438 53.550781 209.089844 C 53.476562 209.125 53.417969 209.175781 53.3125 209.25 C 53.484375 209.328125 53.617188 209.394531 53.753906 209.453125 C 54.625 209.828125 55.421875 210.324219 56.082031 211.011719 C 57.003906 211.964844 57.539062 213.113281 57.605469 214.441406 C 57.640625 215.277344 57.394531 216.0625 56.96875 216.796875 C 56.359375 217.855469 55.457031 218.574219 54.378906 219.105469 C 54.296875 219.144531 54.230469 219.195312 54.125 219.257812 C 54.238281 219.351562 54.339844 219.441406 54.441406 219.519531 C 55.574219 220.355469 56.503906 221.378906 57.265625 222.550781 C 58.035156 223.742188 57.546875 225.195312 56.261719 225.730469 C 55.320312 226.125 54.261719 225.628906 53.839844 224.992188 C 53.238281 224.074219 52.503906 223.289062 51.589844 222.6875 C 50.539062 221.984375 49.363281 221.570312 48.136719 221.292969 C 46.257812 220.871094 44.34375 220.71875 42.421875 220.675781 C 40.359375 220.625 38.300781 220.617188 36.238281 220.582031 C 35.6875 220.574219 35.1875 220.429688 34.738281 220.066406 C 33.605469 219.148438 33.816406 217.238281 35.121094 216.59375 C 35.476562 216.417969 35.832031 216.347656 36.21875 216.347656 C 38.488281 216.347656 40.765625 216.359375 43.039062 216.332031 C 44.53125 216.316406 46.035156 216.273438 47.527344 216.199219 C 48.761719 216.140625 49.996094 216.039062 51.191406 215.757812 C 51.730469 215.625 52.273438 215.464844 52.753906 215.210938 C 53.46875 214.835938 53.46875 214.542969 52.910156 213.976562 C 52.425781 213.484375 51.792969 213.238281 51.148438 213.039062 C 49.710938 212.589844 48.226562 212.410156 46.730469 212.277344 C 43.183594 211.964844 39.621094 211.949219 36.066406 211.929688 C 35.019531 211.921875 34.085938 211.050781 34.003906 210.054688 C 33.902344 208.785156 34.8125 207.832031 35.796875 207.746094 C 36.449219 207.6875 37.109375 207.722656 37.769531 207.695312 C 38.945312 207.644531 40.121094 207.597656 41.289062 207.519531 C 42.371094 207.445312 43.457031 207.359375 44.53125 207.207031 C 45.722656 207.039062 46.90625 206.800781 48.078125 206.558594 C 49.210938 206.328125 50.308594 205.964844 51.359375 205.5 C 52.144531 205.152344 52.890625 204.738281 53.515625 204.140625 C 54.078125 203.605469 54.40625 202.980469 54.421875 202.15625 C 54.441406 200.988281 54.535156 199.8125 54.667969 198.648438 C 54.777344 197.703125 54.972656 196.769531 55.175781 195.835938 C 55.648438 193.664062 56.460938 191.617188 57.546875 189.675781 C 58.121094 188.660156 58.773438 187.707031 59.542969 186.828125 C 60.28125 185.988281 60.890625 185.050781 61.449219 184.078125 C 62.015625 183.097656 62.488281 182.0625 62.871094 181.003906 C 63.410156 179.527344 63.808594 178.019531 64.046875 176.464844 C 64.265625 175.054688 64.359375 173.644531 64.289062 172.222656 C 64.242188 171.328125 64.121094 170.433594 63.976562 169.546875 C 63.707031 167.941406 63.199219 166.410156 62.539062 164.917969 C 62.039062 163.785156 61.414062 162.726562 60.710938 161.707031 C 60.117188 160.851562 59.449219 160.046875 58.730469 159.289062 C 57.691406 158.207031 56.554688 157.261719 55.304688 156.433594 C 53.875 155.484375 52.347656 154.742188 50.722656 154.191406 C 49.285156 153.703125 47.820312 153.390625 46.308594 153.238281 C 45.257812 153.128906 44.214844 153.109375 43.160156 153.164062 C 41.871094 153.238281 40.59375 153.425781 39.34375 153.753906 C 38.074219 154.089844 36.84375 154.53125 35.652344 155.105469 C 34.128906 155.847656 32.722656 156.769531 31.421875 157.851562 C 30.601562 158.535156 29.839844 159.28125 29.152344 160.089844 C 28.296875 161.089844 27.535156 162.175781 26.882812 163.328125 C 26.011719 164.855469 25.359375 166.46875 24.945312 168.167969 C 24.699219 169.164062 24.539062 170.1875 24.429688 171.203125 C 24.328125 172.140625 24.304688 173.085938 24.34375 174.03125 C 24.371094 174.910156 24.480469 175.792969 24.632812 176.660156 C 24.785156 177.523438 24.996094 178.386719 25.257812 179.230469 C 25.496094 180 25.777344 180.769531 26.125 181.496094 C 26.539062 182.371094 27.003906 183.234375 27.527344 184.046875 C 28.011719 184.808594 28.609375 185.492188 29.136719 186.234375 C 29.625 186.917969 30.140625 187.585938 30.550781 188.3125 C 31.074219 189.234375 31.53125 190.199219 31.96875 191.175781 C 32.488281 192.351562 32.859375 193.578125 33.199219 194.820312 C 33.496094 195.902344 34.003906 196.847656 35.027344 197.421875 C 35.558594 197.71875 36.136719 197.878906 36.742188 197.894531 C 38.03125 197.929688 39.324219 197.929688 40.621094 197.945312 C 41.414062 197.953125 42.066406 197.652344 42.601562 197.074219 C 44.277344 195.257812 45.890625 193.390625 47.304688 191.363281 C 48.640625 189.460938 49.871094 187.492188 50.84375 185.375 C 51.375 184.222656 51.882812 183.058594 52.324219 181.867188 C 52.796875 180.589844 53.136719 179.261719 53.078125 177.871094 C 53.042969 177.015625 52.859375 176.195312 52.308594 175.503906 C 51.539062 174.53125 49.988281 174.058594 48.785156 174.488281 C 47.855469 174.820312 47.050781 175.335938 46.382812 176.078125 C 46.257812 176.214844 46.246094 176.347656 46.289062 176.515625 C 46.46875 177.195312 46.621094 177.886719 46.5625 178.589844 C 46.460938 179.652344 45.984375 180.523438 45.078125 181.105469 C 44.367188 181.5625 43.605469 181.453125 42.921875 180.867188 C 42.023438 180.09375 41.71875 179.121094 41.828125 177.96875 C 41.882812 177.378906 41.992188 176.8125 42.175781 176.253906 C 42.195312 176.195312 42.183594 176.101562 42.144531 176.050781 C 41.578125 175.234375 40.875 174.589844 39.910156 174.296875 C 39.214844 174.085938 38.519531 174.203125 37.851562 174.449219 C 36.5 174.945312 35.820312 175.984375 35.601562 177.363281 C 35.433594 178.460938 35.617188 179.535156 35.914062 180.589844 C 36.296875 181.957031 36.980469 183.183594 37.792969 184.332031 C 38.4375 185.238281 39.121094 186.125 39.839844 186.980469 C 40.46875 187.746094 41.171875 188.449219 41.832031 189.191406 C 42.398438 189.828125 42.53125 190.570312 42.21875 191.355469 C 41.921875 192.117188 41.332031 192.570312 40.507812 192.671875 C 39.6875 192.765625 39.070312 192.402344 38.546875 191.8125 C 37.820312 191.007812 37.066406 190.222656 36.363281 189.386719 C 35.128906 187.917969 33.992188 186.378906 33.085938 184.664062 C 32.308594 183.203125 31.765625 181.679688 31.496094 180.050781 C 31.242188 178.496094 31.261719 176.949219 31.742188 175.433594 C 32.453125 173.203125 33.859375 171.582031 36.023438 170.644531 C 37.050781 170.195312 38.125 169.996094 39.234375 169.976562 C 40.375 169.953125 41.398438 170.339844 42.339844 170.957031 C 43.015625 171.398438 43.625 171.921875 44.164062 172.527344 C 44.300781 172.679688 44.394531 172.699219 44.570312 172.539062 C 45.230469 171.9375 45.941406 171.40625 46.714844 170.964844 C 47.976562 170.246094 49.320312 169.941406 50.777344 170.171875 C 52.171875 170.398438 53.425781 170.914062 54.515625 171.820312 C 55.386719 172.539062 56.046875 173.417969 56.503906 174.449219 C 56.816406 175.148438 57.023438 175.875 57.121094 176.628906 C 57.222656 177.445312 57.285156 178.257812 57.164062 179.078125 C 57.074219 179.679688 57.039062 180.300781 56.886719 180.894531 C 56.625 181.917969 56.34375 182.9375 55.972656 183.925781 C 55.515625 185.128906 55.007812 186.320312 54.441406 187.476562 C 53.914062 188.558594 53.324219 189.625 52.671875 190.644531 C 51.679688 192.199219 50.648438 193.730469 49.574219 195.234375 C 48.691406 196.46875 47.753906 197.667969 46.789062 198.839844 C 46.011719 199.78125 45.140625 200.660156 44.105469 201.335938 C 43.472656 201.75 42.785156 202.050781 42.023438 202.0625 C 40.230469 202.09375 38.4375 202.128906 36.652344 202.085938 C 35.355469 202.054688 34.101562 201.722656 32.945312 201.082031 C 31.921875 200.507812 31.089844 199.738281 30.421875 198.773438 C 29.675781 197.683594 29.28125 196.457031 28.914062 195.207031 C 28.613281 194.195312 28.230469 193.199219 27.824219 192.226562 C 27.332031 191.042969 26.699219 189.9375 25.910156 188.921875 C 25.320312 188.160156 24.710938 187.417969 24.167969 186.617188 C 22.804688 184.613281 21.796875 182.433594 21.097656 180.109375 C 20.640625 178.585938 20.34375 177.039062 20.175781 175.453125 C 20.121094 174.945312 20.113281 174.4375 20.074219 173.921875 C 20.070312 173.828125 20.039062 173.738281 20.023438 173.652344 C 20.023438 173.316406 20.023438 172.976562 20.023438 172.640625 C 20.054688 172.359375 20.089844 172.082031 20.121094 171.800781 C 20.207031 170.957031 20.277344 170.113281 20.394531 169.277344 C 20.582031 167.90625 20.941406 166.574219 21.390625 165.269531 C 21.917969 163.734375 22.59375 162.269531 23.421875 160.867188 C 24.160156 159.609375 25.003906 158.433594 25.953125 157.328125 C 26.835938 156.289062 27.808594 155.34375 28.855469 154.472656 C 30.335938 153.246094 31.9375 152.199219 33.671875 151.351562 C 35.375 150.515625 37.148438 149.890625 39.003906 149.476562 C 40.308594 149.183594 41.625 148.988281 42.957031 148.929688 C 43.242188 148.914062 43.515625 148.871094 43.792969 148.835938 C 44.140625 148.84375 44.472656 148.84375 44.816406 148.84375 Z M 44.816406 148.84375 "/></g></svg>