<svg xmlns="http://www.w3.org/2000/svg" xmlns:xlink="http://www.w3.org/1999/xlink" width="748" zoomAndPan="magnify" viewBox="0 0 561 809.999993" height="1080" preserveAspectRatio="xMidYMid meet" version="1.0"><path fill="#ffffff" d="M 282.6875 5.820312 C 283.667969 5.972656 284.722656 6.347656 285.703125 6.347656 C 306.285156 7.328125 326.5625 10.273438 346.390625 16.007812 C 372.402344 23.476562 396.605469 34.871094 418.917969 50.191406 C 435.882812 61.808594 451.339844 75.167969 464.910156 90.710938 C 477.953125 105.652344 489.789062 121.496094 498.683594 139.304688 C 503.660156 149.191406 508.484375 159.152344 512.558594 169.414062 C 518.664062 184.882812 522.886719 201.03125 525.523438 217.554688 C 527.863281 232.195312 529.292969 246.910156 528.992188 261.773438 C 528.765625 271.054688 527.710938 280.414062 526.882812 289.695312 C 525.449219 305.464844 522.132812 320.859375 517.53125 335.949219 C 514.289062 346.664062 510.445312 357.226562 505.921875 367.492188 C 501.398438 377.902344 496.121094 388.015625 490.542969 397.898438 C 483.757812 409.972656 475.386719 420.914062 466.417969 431.402344 C 456.917969 442.496094 450.054688 455.171875 444.175781 468.527344 C 437.769531 483.09375 433.320312 498.257812 430.304688 513.804688 C 427.210938 529.726562 426.082031 545.796875 426.007812 562.023438 C 425.929688 574.699219 422.238281 586.320312 415.375 597.035156 C 407.382812 609.332031 396.453125 618.464844 384.011719 625.859375 C 380.546875 627.898438 376.925781 629.632812 373.457031 631.59375 C 372.703125 631.972656 372.101562 632.5 370.96875 633.253906 C 372.78125 634.085938 374.136719 634.761719 375.570312 635.367188 C 384.617188 639.289062 392.910156 644.421875 399.769531 651.589844 C 409.34375 661.476562 414.925781 673.398438 415.601562 687.207031 C 415.980469 695.882812 413.414062 704.035156 408.96875 711.65625 C 402.636719 722.671875 393.285156 730.140625 382.054688 735.652344 C 381.222656 736.027344 380.546875 736.554688 379.414062 737.234375 C 380.621094 738.214844 381.675781 739.121094 382.730469 739.953125 C 394.492188 748.628906 404.144531 759.269531 412.058594 771.417969 C 420.050781 783.792969 415 798.882812 401.65625 804.46875 C 391.855469 808.542969 380.847656 803.410156 376.472656 796.773438 C 370.214844 787.265625 362.601562 779.113281 353.101562 772.851562 C 342.171875 765.53125 329.957031 761.230469 317.214844 758.363281 C 297.6875 753.988281 277.785156 752.402344 257.804688 751.949219 C 236.394531 751.421875 214.984375 751.347656 193.574219 750.96875 C 187.84375 750.894531 182.640625 749.382812 177.964844 745.609375 C 166.207031 736.101562 168.390625 716.257812 181.960938 709.542969 C 185.65625 707.730469 189.351562 706.976562 193.347656 706.976562 C 216.945312 706.976562 240.617188 707.128906 264.214844 706.824219 C 279.746094 706.675781 295.351562 706.222656 310.882812 705.46875 C 323.699219 704.863281 336.515625 703.808594 348.957031 700.863281 C 354.535156 699.507812 360.1875 697.847656 365.164062 695.207031 C 372.628906 691.28125 372.628906 688.261719 366.824219 682.378906 C 361.773438 677.246094 355.214844 674.679688 348.503906 672.644531 C 333.574219 667.964844 318.121094 666.078125 302.589844 664.71875 C 265.722656 661.476562 228.707031 661.324219 191.761719 661.097656 C 180.90625 661.023438 171.179688 651.96875 170.351562 641.628906 C 169.296875 628.425781 178.71875 618.539062 188.972656 617.632812 C 195.757812 617.03125 202.621094 617.40625 209.480469 617.105469 C 221.695312 616.578125 233.90625 616.125 246.046875 615.296875 C 257.277344 614.539062 268.585938 613.636719 279.746094 612.050781 C 292.109375 610.316406 304.398438 607.824219 316.613281 605.335938 C 328.375 602.921875 339.757812 599.148438 350.691406 594.316406 C 358.832031 590.695312 366.597656 586.394531 373.082031 580.207031 C 378.960938 574.625 382.355469 568.132812 382.503906 559.605469 C 382.730469 547.457031 383.710938 535.234375 385.070312 523.160156 C 386.199219 513.351562 388.234375 503.617188 390.347656 493.957031 C 395.246094 471.398438 403.691406 450.117188 415 429.96875 C 420.957031 419.40625 427.742188 409.519531 435.730469 400.390625 C 443.421875 391.636719 449.753906 381.902344 455.558594 371.792969 C 461.441406 361.605469 466.339844 350.890625 470.335938 339.875 C 475.917969 324.554688 480.0625 308.859375 482.550781 292.710938 C 484.8125 278.074219 485.792969 263.433594 485.039062 248.644531 C 484.585938 239.363281 483.304688 230.082031 481.796875 220.875 C 479.007812 204.199219 473.730469 188.277344 466.871094 172.808594 C 461.667969 161.039062 455.183594 150.019531 447.871094 139.457031 C 441.6875 130.550781 434.753906 122.175781 427.289062 114.328125 C 416.507812 103.085938 404.671875 93.277344 391.703125 84.675781 C 376.851562 74.789062 360.941406 67.09375 344.054688 61.359375 C 329.128906 56.300781 313.898438 53.058594 298.21875 51.472656 C 287.285156 50.339844 276.429688 50.113281 265.496094 50.71875 C 252.078125 51.472656 238.808594 53.433594 225.839844 56.832031 C 212.648438 60.300781 199.832031 64.902344 187.464844 70.867188 C 171.632812 78.5625 157.007812 88.144531 143.511719 99.386719 C 134.992188 106.480469 127.078125 114.253906 119.914062 122.628906 C 111.019531 133.042969 103.101562 144.285156 96.316406 156.285156 C 87.269531 172.128906 80.484375 188.882812 76.1875 206.539062 C 73.625 216.875 71.964844 227.515625 70.835938 238.082031 C 69.777344 247.8125 69.550781 257.625 69.929688 267.433594 C 70.230469 276.5625 71.363281 285.769531 72.945312 294.75 C 74.527344 303.730469 76.714844 312.707031 79.429688 321.460938 C 81.917969 329.460938 84.855469 337.457031 88.476562 345.003906 C 92.773438 354.058594 97.597656 363.039062 103.027344 371.488281 C 108.078125 379.414062 114.261719 386.507812 119.765625 394.203125 C 124.816406 401.296875 130.167969 408.238281 134.464844 415.785156 C 139.894531 425.367188 144.644531 435.402344 149.167969 445.515625 C 154.59375 457.738281 158.441406 470.492188 161.984375 483.394531 C 165.074219 494.636719 170.351562 504.449219 180.980469 510.410156 C 186.484375 513.503906 192.515625 515.164062 198.773438 515.3125 C 212.195312 515.691406 225.613281 515.691406 239.109375 515.839844 C 247.328125 515.917969 254.113281 512.824219 259.691406 506.785156 C 277.105469 487.921875 293.84375 468.527344 308.546875 447.476562 C 322.417969 427.707031 335.234375 407.257812 345.335938 385.300781 C 350.839844 373.300781 356.117188 361.226562 360.71875 348.851562 C 365.617188 335.570312 369.160156 321.761719 368.558594 307.351562 C 368.179688 298.445312 366.296875 289.921875 360.566406 282.75 C 352.574219 272.640625 336.441406 267.734375 323.925781 272.1875 C 314.277344 275.660156 305.90625 281.015625 298.972656 288.710938 C 297.6875 290.144531 297.539062 291.503906 297.992188 293.238281 C 299.875 300.332031 301.457031 307.5 300.855469 314.820312 C 299.800781 325.839844 294.824219 334.894531 285.398438 340.929688 C 278.011719 345.683594 270.09375 344.550781 263.007812 338.4375 C 253.660156 330.441406 250.492188 320.328125 251.625 308.332031 C 252.226562 302.21875 253.359375 296.332031 255.242188 290.523438 C 255.46875 289.917969 255.320312 288.9375 254.941406 288.410156 C 249.0625 279.960938 241.75 273.242188 231.722656 270.226562 C 224.484375 268.035156 217.246094 269.246094 210.308594 271.808594 C 196.285156 276.941406 189.199219 287.730469 186.9375 302.070312 C 185.203125 313.460938 187.089844 324.628906 190.179688 335.570312 C 194.175781 349.757812 201.261719 362.511719 209.707031 374.433594 C 216.417969 383.863281 223.503906 393.070312 230.96875 401.976562 C 237.527344 409.898438 244.839844 417.21875 251.699219 424.914062 C 257.582031 431.554688 258.9375 439.25 255.695312 447.402344 C 252.605469 455.324219 246.496094 460.003906 237.902344 461.058594 C 229.382812 462.039062 222.976562 458.265625 217.546875 452.15625 C 210.007812 443.777344 202.167969 435.628906 194.855469 426.953125 C 182.039062 411.710938 170.199219 395.710938 160.777344 377.902344 C 152.710938 362.738281 147.054688 346.890625 144.265625 329.988281 C 141.628906 313.839844 141.855469 297.765625 146.828125 281.996094 C 154.21875 258.832031 168.84375 242.003906 191.3125 232.269531 C 202.015625 227.589844 213.175781 225.554688 224.710938 225.328125 C 236.546875 225.101562 247.175781 229.101562 256.976562 235.515625 C 263.988281 240.117188 270.320312 245.550781 275.902344 251.8125 C 277.332031 253.398438 278.3125 253.625 280.121094 251.964844 C 286.984375 245.703125 294.371094 240.191406 302.4375 235.589844 C 315.558594 228.121094 329.503906 224.949219 344.660156 227.363281 C 359.132812 229.703125 372.175781 235.0625 383.484375 244.496094 C 392.53125 251.964844 399.394531 261.09375 404.144531 271.808594 C 407.382812 279.054688 409.570312 286.601562 410.550781 294.449219 C 411.605469 302.898438 412.285156 311.351562 411.003906 319.875 C 410.097656 326.140625 409.722656 332.554688 408.136719 338.742188 C 405.425781 349.382812 402.484375 359.945312 398.640625 370.207031 C 393.890625 382.734375 388.613281 395.109375 382.730469 407.105469 C 377.226562 418.347656 371.121094 429.441406 364.335938 440.007812 C 354.007812 456.152344 343.300781 472.074219 332.144531 487.695312 C 322.945312 500.523438 313.21875 512.972656 303.191406 525.121094 C 295.125 534.933594 286.078125 544.0625 275.296875 551.082031 C 268.738281 555.382812 261.578125 558.476562 253.660156 558.625 C 235.039062 558.929688 216.417969 559.304688 197.871094 558.851562 C 184.375 558.550781 171.332031 555.078125 159.34375 548.4375 C 148.714844 542.476562 140.042969 534.480469 133.109375 524.445312 C 125.34375 513.125 121.273438 500.371094 117.425781 487.394531 C 114.335938 476.90625 110.339844 466.566406 106.117188 456.457031 C 100.992188 444.15625 94.433594 432.6875 86.214844 422.121094 C 80.109375 414.199219 73.773438 406.503906 68.121094 398.203125 C 53.945312 377.375 43.46875 354.738281 36.230469 330.59375 C 31.480469 314.746094 28.386719 298.671875 26.65625 282.222656 C 26.050781 276.941406 25.976562 271.660156 25.597656 266.300781 C 25.523438 265.320312 25.222656 264.414062 25.070312 263.507812 C 25.070312 260.039062 25.070312 256.492188 25.070312 253.019531 C 25.371094 250.078125 25.75 247.210938 26.050781 244.269531 C 26.957031 235.515625 27.710938 226.761719 28.917969 218.082031 C 30.875 203.824219 34.570312 190.011719 39.246094 176.429688 C 44.75 160.507812 51.761719 145.265625 60.355469 130.703125 C 68.042969 117.648438 76.789062 105.425781 86.667969 93.957031 C 95.863281 83.164062 105.96875 73.355469 116.824219 64.300781 C 132.203125 51.546875 148.863281 40.683594 166.882812 31.851562 C 184.601562 23.175781 202.996094 16.6875 222.296875 12.386719 C 235.867188 9.367188 249.511719 7.328125 263.386719 6.726562 C 266.324219 6.574219 269.191406 6.121094 272.054688 5.746094 C 275.675781 5.820312 279.144531 5.820312 282.6875 5.820312 Z M 282.6875 5.820312 " fill-opacity="1" fill-rule="nonzero"/></svg>