<svg xmlns="http://www.w3.org/2000/svg" xmlns:xlink="http://www.w3.org/1999/xlink" width="80" zoomAndPan="magnify" viewBox="0 0 60 73.499998" height="98" preserveAspectRatio="xMidYMid meet" version="1.2"><defs><clipPath id="68171761ed"><path d="M 6.164062 4.917969 L 55.21875 4.917969 L 55.21875 65 L 6.164062 65 Z M 6.164062 4.917969 "/></clipPath></defs><g id="abad874220"><g clip-rule="nonzero" clip-path="url(#68171761ed)"><path style=" stroke:none;fill-rule:nonzero;fill:#ffffff;fill-opacity:1;" d="M 6.207031 25.230469 L 21.058594 25.230469 L 10.441406 15.164062 L 16.273438 9.273438 L 26.339844 19.523438 L 26.339844 4.917969 L 35.054688 4.917969 L 35.054688 19.523438 L 45.117188 9.273438 L 50.949219 15.164062 L 40.332031 25.167969 L 55.183594 25.167969 L 55.183594 33.453125 L 40.269531 33.453125 L 50.886719 43.703125 L 45.058594 49.472656 L 30.632812 35.050781 L 16.210938 49.535156 L 10.382812 43.703125 L 21 33.453125 L 6.085938 33.453125 L 6.085938 25.230469 Z M 26.398438 45.300781 L 35.113281 45.300781 L 35.113281 64.9375 L 26.398438 64.9375 Z M 26.398438 45.300781 "/></g></g></svg>