<svg xmlns="http://www.w3.org/2000/svg" xmlns:xlink="http://www.w3.org/1999/xlink" width="500" zoomAndPan="magnify" viewBox="0 0 375 374.999991" height="500" preserveAspectRatio="xMidYMid meet" version="1.2"><defs><clipPath id="ba02ca0cd2"><path d="M 100.289062 295.8125 L 289.535156 295.8125 L 289.535156 343.78125 L 100.289062 343.78125 Z M 100.289062 295.8125 "/></clipPath><clipPath id="25b87cc22d"><path d="M 273.847656 295.8125 L 100.414062 295.8125 L 100.414062 343.78125 L 100.851562 343.78125 L 273.800781 343.726562 C 282.640625 343.726562 289.515625 332.976562 289.515625 319.726562 C 289.542969 306.558594 282.667969 295.8125 273.847656 295.8125 Z M 116.21875 319.78125 L 116.21875 319.671875 Z M 116.21875 319.78125 "/></clipPath><clipPath id="52d9ce1d8b"><path d="M 85.484375 295.8125 L 116.402344 295.8125 L 116.402344 343.96875 L 85.484375 343.96875 Z M 85.484375 295.8125 "/></clipPath><clipPath id="da9d53bad3"><path d="M 114.953125 310.214844 L 114.625 309.144531 C 114.515625 308.785156 114.402344 308.457031 114.265625 308.128906 L 114.265625 308.101562 C 114.15625 307.769531 114.019531 307.441406 113.882812 307.109375 L 113.882812 307.082031 C 113.746094 306.753906 113.605469 306.449219 113.46875 306.121094 L 113.46875 306.09375 C 113.332031 305.789062 113.195312 305.460938 113.03125 305.160156 L 113.03125 305.132812 C 112.890625 304.828125 112.726562 304.527344 112.5625 304.25 L 112.5625 304.222656 C 112.398438 303.921875 112.230469 303.648438 112.066406 303.371094 C 111.902344 303.097656 111.738281 302.820312 111.546875 302.546875 C 108.824219 298.453125 105.140625 295.894531 101.042969 295.8125 L 100.851562 295.8125 C 92.359375 295.8125 85.484375 306.558594 85.484375 319.808594 C 85.484375 333.058594 92.359375 343.808594 100.851562 343.808594 L 101.042969 343.808594 C 109.457031 343.640625 116.21875 332.976562 116.21875 319.835938 C 116.246094 316.402344 115.777344 313.15625 114.953125 310.214844 Z M 114.953125 310.214844 "/></clipPath></defs><g id="5cc2c5da47"><path style=" stroke:none;fill-rule:nonzero;fill:#ffffff;fill-opacity:1;" d="M 188.636719 19.464844 C 188.835938 19.496094 189.050781 19.570312 189.25 19.570312 C 193.441406 19.769531 197.570312 20.371094 201.609375 21.539062 C 206.90625 23.0625 211.835938 25.382812 216.378906 28.503906 C 219.832031 30.871094 222.980469 33.589844 225.742188 36.757812 C 228.398438 39.800781 230.808594 43.027344 232.621094 46.65625 C 233.632812 48.667969 234.617188 50.699219 235.445312 52.789062 C 236.6875 55.941406 237.550781 59.230469 238.085938 62.597656 C 238.5625 65.578125 238.855469 68.574219 238.792969 71.601562 C 238.746094 73.492188 238.53125 75.398438 238.363281 77.289062 C 238.070312 80.503906 237.394531 83.640625 236.457031 86.714844 C 235.796875 88.894531 235.015625 91.046875 234.09375 93.140625 C 233.171875 95.261719 232.097656 97.320312 230.964844 99.332031 C 229.582031 101.792969 227.878906 104.023438 226.050781 106.160156 C 224.117188 108.417969 222.71875 111 221.519531 113.722656 C 220.214844 116.6875 219.3125 119.777344 218.695312 122.945312 C 218.066406 126.1875 217.835938 129.460938 217.820312 132.765625 C 217.804688 135.347656 217.054688 137.714844 215.65625 139.898438 C 214.03125 142.402344 211.804688 144.265625 209.269531 145.769531 C 208.5625 146.183594 207.828125 146.539062 207.121094 146.9375 C 206.96875 147.015625 206.84375 147.121094 206.613281 147.277344 C 206.984375 147.445312 207.257812 147.585938 207.550781 147.707031 C 209.394531 148.507812 211.082031 149.550781 212.480469 151.011719 C 214.429688 153.027344 215.566406 155.453125 215.703125 158.265625 C 215.78125 160.035156 215.257812 161.695312 214.351562 163.246094 C 213.0625 165.492188 211.160156 167.011719 208.871094 168.136719 C 208.703125 168.210938 208.5625 168.320312 208.335938 168.457031 C 208.578125 168.65625 208.792969 168.84375 209.007812 169.011719 C 211.40625 170.78125 213.371094 172.945312 214.980469 175.421875 C 216.609375 177.941406 215.582031 181.015625 212.863281 182.152344 C 210.867188 182.984375 208.625 181.9375 207.734375 180.585938 C 206.460938 178.648438 204.910156 176.988281 202.976562 175.714844 C 200.75 174.222656 198.261719 173.347656 195.667969 172.761719 C 191.691406 171.871094 187.640625 171.546875 183.570312 171.457031 C 179.210938 171.347656 174.851562 171.332031 170.492188 171.257812 C 169.324219 171.242188 168.265625 170.933594 167.3125 170.164062 C 164.917969 168.226562 165.363281 164.183594 168.128906 162.816406 C 168.878906 162.449219 169.632812 162.292969 170.445312 162.292969 C 175.25 162.292969 180.070312 162.324219 184.875 162.261719 C 188.039062 162.234375 191.214844 162.140625 194.378906 161.988281 C 196.988281 161.863281 199.597656 161.648438 202.132812 161.050781 C 203.269531 160.773438 204.417969 160.433594 205.433594 159.894531 C 206.953125 159.097656 206.953125 158.480469 205.769531 157.285156 C 204.742188 156.238281 203.40625 155.714844 202.039062 155.300781 C 199 154.347656 195.851562 153.964844 192.691406 153.6875 C 185.183594 153.027344 177.644531 152.996094 170.121094 152.949219 C 167.910156 152.933594 165.933594 151.089844 165.761719 148.984375 C 165.546875 146.292969 167.46875 144.277344 169.554688 144.09375 C 170.9375 143.972656 172.332031 144.046875 173.730469 143.988281 C 176.21875 143.878906 178.703125 143.789062 181.175781 143.617188 C 183.464844 143.464844 185.765625 143.28125 188.039062 142.957031 C 190.554688 142.605469 193.058594 142.097656 195.546875 141.589844 C 197.941406 141.097656 200.257812 140.328125 202.484375 139.34375 C 204.144531 138.605469 205.722656 137.730469 207.042969 136.46875 C 208.242188 135.332031 208.933594 134.011719 208.964844 132.273438 C 209.007812 129.800781 209.210938 127.308594 209.484375 124.851562 C 209.714844 122.851562 210.128906 120.867188 210.558594 118.902344 C 211.558594 114.304688 213.277344 109.96875 215.582031 105.867188 C 216.792969 103.714844 218.175781 101.699219 219.800781 99.839844 C 221.367188 98.058594 222.65625 96.074219 223.839844 94.015625 C 225.035156 91.941406 226.035156 89.757812 226.847656 87.511719 C 227.984375 84.390625 228.828125 81.195312 229.335938 77.90625 C 229.796875 74.921875 229.996094 71.941406 229.84375 68.929688 C 229.75 67.039062 229.488281 65.148438 229.183594 63.273438 C 228.613281 59.875 227.539062 56.632812 226.140625 53.480469 C 225.082031 51.082031 223.761719 48.839844 222.273438 46.6875 C 221.015625 44.871094 219.601562 43.167969 218.082031 41.566406 C 215.886719 39.277344 213.476562 37.277344 210.835938 35.527344 C 207.8125 33.511719 204.574219 31.945312 201.132812 30.777344 C 198.09375 29.746094 194.992188 29.085938 191.800781 28.761719 C 189.574219 28.53125 187.363281 28.488281 185.136719 28.609375 C 182.40625 28.761719 179.703125 29.164062 177.0625 29.855469 C 174.375 30.5625 171.765625 31.5 169.246094 32.714844 C 166.023438 34.28125 163.046875 36.234375 160.296875 38.523438 C 158.5625 39.96875 156.949219 41.550781 155.492188 43.257812 C 153.679688 45.378906 152.070312 47.671875 150.6875 50.113281 C 148.84375 53.34375 147.464844 56.753906 146.589844 60.351562 C 146.066406 62.457031 145.726562 64.625 145.5 66.777344 C 145.285156 68.757812 145.238281 70.757812 145.3125 72.757812 C 145.375 74.617188 145.605469 76.492188 145.929688 78.320312 C 146.25 80.148438 146.695312 81.980469 147.25 83.761719 C 147.753906 85.390625 148.355469 87.019531 149.089844 88.558594 C 149.964844 90.402344 150.949219 92.230469 152.054688 93.953125 C 153.082031 95.566406 154.339844 97.011719 155.460938 98.582031 C 156.488281 100.023438 157.582031 101.4375 158.457031 102.976562 C 159.5625 104.929688 160.527344 106.972656 161.449219 109.03125 C 162.554688 111.523438 163.335938 114.121094 164.058594 116.75 C 164.6875 119.039062 165.761719 121.039062 167.925781 122.253906 C 169.046875 122.882812 170.277344 123.21875 171.550781 123.25 C 174.28125 123.328125 177.015625 123.328125 179.765625 123.359375 C 181.4375 123.375 182.820312 122.742188 183.953125 121.515625 C 187.5 117.671875 190.910156 113.722656 193.902344 109.433594 C 196.726562 105.40625 199.335938 101.238281 201.394531 96.765625 C 202.515625 94.324219 203.589844 91.863281 204.527344 89.34375 C 205.523438 86.636719 206.246094 83.824219 206.125 80.886719 C 206.046875 79.074219 205.664062 77.335938 204.496094 75.875 C 202.867188 73.816406 199.582031 72.816406 197.035156 73.726562 C 195.070312 74.433594 193.367188 75.523438 191.953125 77.089844 C 191.691406 77.382812 191.660156 77.660156 191.753906 78.011719 C 192.136719 79.457031 192.460938 80.917969 192.335938 82.410156 C 192.121094 84.652344 191.109375 86.5 189.191406 87.726562 C 187.683594 88.695312 186.074219 88.464844 184.628906 87.222656 C 182.726562 85.589844 182.082031 83.53125 182.3125 81.085938 C 182.433594 79.84375 182.664062 78.644531 183.050781 77.460938 C 183.09375 77.335938 183.066406 77.136719 182.988281 77.03125 C 181.789062 75.308594 180.300781 73.941406 178.257812 73.324219 C 176.785156 72.878906 175.3125 73.125 173.898438 73.648438 C 171.042969 74.691406 169.601562 76.890625 169.140625 79.8125 C 168.789062 82.132812 169.171875 84.40625 169.800781 86.636719 C 170.613281 89.527344 172.058594 92.125 173.777344 94.554688 C 175.144531 96.472656 176.585938 98.347656 178.105469 100.164062 C 179.441406 101.777344 180.929688 103.269531 182.328125 104.835938 C 183.523438 106.1875 183.800781 107.757812 183.140625 109.417969 C 182.511719 111.03125 181.269531 111.984375 179.519531 112.199219 C 177.785156 112.398438 176.480469 111.628906 175.375 110.386719 C 173.839844 108.679688 172.242188 107.019531 170.753906 105.25 C 168.140625 102.144531 165.730469 98.886719 163.8125 95.261719 C 162.171875 92.171875 161.019531 88.941406 160.449219 85.5 C 159.914062 82.210938 159.960938 78.9375 160.972656 75.722656 C 162.476562 71.003906 165.457031 67.574219 170.03125 65.59375 C 172.210938 64.640625 174.484375 64.226562 176.832031 64.179688 C 179.242188 64.132812 181.40625 64.949219 183.402344 66.253906 C 184.828125 67.191406 186.121094 68.296875 187.253906 69.574219 C 187.546875 69.898438 187.746094 69.941406 188.117188 69.605469 C 189.511719 68.328125 191.015625 67.207031 192.660156 66.269531 C 195.332031 64.746094 198.171875 64.101562 201.257812 64.59375 C 204.203125 65.070312 206.859375 66.160156 209.164062 68.082031 C 211.003906 69.605469 212.402344 71.464844 213.371094 73.648438 C 214.03125 75.125 214.476562 76.660156 214.675781 78.257812 C 214.890625 79.980469 215.027344 81.703125 214.765625 83.4375 C 214.582031 84.714844 214.503906 86.023438 214.183594 87.28125 C 213.628906 89.449219 213.03125 91.601562 212.25 93.691406 C 211.28125 96.242188 210.207031 98.765625 209.007812 101.207031 C 207.890625 103.5 206.644531 105.757812 205.261719 107.910156 C 203.160156 111.199219 200.980469 114.445312 198.707031 117.625 C 196.835938 120.238281 194.855469 122.773438 192.8125 125.25 C 191.171875 127.246094 189.328125 129.109375 187.132812 130.539062 C 185.796875 131.414062 184.339844 132.042969 182.726562 132.074219 C 178.933594 132.136719 175.144531 132.210938 171.367188 132.121094 C 168.617188 132.058594 165.960938 131.351562 163.519531 130 C 161.355469 128.785156 159.589844 127.15625 158.179688 125.109375 C 156.597656 122.804688 155.769531 120.207031 154.984375 117.5625 C 154.355469 115.425781 153.542969 113.320312 152.683594 111.261719 C 151.640625 108.757812 150.304688 106.417969 148.628906 104.265625 C 147.386719 102.652344 146.097656 101.085938 144.945312 99.394531 C 142.058594 95.152344 139.925781 90.539062 138.453125 85.621094 C 137.484375 82.394531 136.855469 79.121094 136.5 75.769531 C 136.378906 74.691406 136.363281 73.617188 136.285156 72.527344 C 136.273438 72.324219 136.210938 72.140625 136.179688 71.957031 C 136.179688 71.25 136.179688 70.527344 136.179688 69.820312 C 136.242188 69.222656 136.316406 68.636719 136.378906 68.039062 C 136.5625 66.253906 136.714844 64.472656 136.960938 62.703125 C 137.363281 59.796875 138.113281 56.984375 139.066406 54.21875 C 140.1875 50.976562 141.613281 47.871094 143.363281 44.902344 C 144.929688 42.246094 146.710938 39.753906 148.722656 37.417969 C 150.59375 35.21875 152.652344 33.222656 154.863281 31.375 C 157.996094 28.777344 161.386719 26.566406 165.054688 24.765625 C 168.664062 23 172.410156 21.675781 176.339844 20.800781 C 179.105469 20.1875 181.882812 19.769531 184.707031 19.648438 C 185.304688 19.617188 185.890625 19.523438 186.472656 19.449219 C 187.210938 19.464844 187.914062 19.464844 188.636719 19.464844 Z M 188.636719 19.464844 "/><g clip-rule="nonzero" clip-path="url(#ba02ca0cd2)"><g clip-rule="nonzero" clip-path="url(#25b87cc22d)"><path style=" stroke:none;fill-rule:nonzero;fill:#ffffff;fill-opacity:1;" d="M 85.484375 295.8125 L 289.535156 295.8125 L 289.535156 343.78125 L 85.484375 343.78125 Z M 85.484375 295.8125 "/></g></g><g clip-rule="nonzero" clip-path="url(#52d9ce1d8b)"><g clip-rule="nonzero" clip-path="url(#da9d53bad3)"><path style=" stroke:none;fill-rule:nonzero;fill:#ffffff;fill-opacity:1;" d="M 85.484375 295.8125 L 289.535156 295.8125 L 289.535156 343.78125 L 85.484375 343.78125 Z M 85.484375 295.8125 "/></g></g><g style="fill:#ffffff;fill-opacity:1;"><g transform="translate(65.143985, 233.54435)"><path style="stroke:none" d="M 26.8125 -8.046875 L 26.8125 0 L 2.890625 0 L 2.890625 -33.578125 L 26.390625 -33.578125 L 26.390625 -25.546875 L 12.109375 -25.546875 L 12.109375 -20.8125 L 24.3125 -20.8125 L 24.3125 -13.34375 L 12.109375 -13.34375 L 12.109375 -8.046875 Z M 26.8125 -8.046875 "/></g></g><g style="fill:#ffffff;fill-opacity:1;"><g transform="translate(93.374021, 233.54435)"><path style="stroke:none" d="M 2.890625 0 L 2.890625 -33.578125 L 25.921875 -33.578125 L 25.921875 -25.546875 L 12.109375 -25.546875 L 12.109375 -19.953125 L 23.359375 -19.953125 L 23.359375 -12.484375 L 12.109375 -12.484375 L 12.109375 0 Z M 2.890625 0 "/></g></g><g style="fill:#ffffff;fill-opacity:1;"><g transform="translate(119.807165, 233.54435)"><path style="stroke:none" d="M 2.890625 0 L 2.890625 -33.578125 L 25.921875 -33.578125 L 25.921875 -25.546875 L 12.109375 -25.546875 L 12.109375 -19.953125 L 23.359375 -19.953125 L 23.359375 -12.484375 L 12.109375 -12.484375 L 12.109375 0 Z M 2.890625 0 "/></g></g><g style="fill:#ffffff;fill-opacity:1;"><g transform="translate(146.24031, 233.54435)"><path style="stroke:none" d="M 26.8125 -8.046875 L 26.8125 0 L 2.890625 0 L 2.890625 -33.578125 L 26.390625 -33.578125 L 26.390625 -25.546875 L 12.109375 -25.546875 L 12.109375 -20.8125 L 24.3125 -20.8125 L 24.3125 -13.34375 L 12.109375 -13.34375 L 12.109375 -8.046875 Z M 26.8125 -8.046875 "/></g></g><g style="fill:#ffffff;fill-opacity:1;"><g transform="translate(174.470346, 233.54435)"><path style="stroke:none" d="M 1.046875 -17.078125 C 1.046875 -19.117188 1.40625 -21.132812 2.125 -23.125 C 2.851562 -25.113281 3.914062 -26.894531 5.3125 -28.46875 C 6.71875 -30.050781 8.421875 -31.328125 10.421875 -32.296875 C 12.429688 -33.273438 14.710938 -33.765625 17.265625 -33.765625 C 20.253906 -33.765625 22.867188 -33.09375 25.109375 -31.75 C 27.347656 -30.414062 29.003906 -28.644531 30.078125 -26.4375 L 23.03125 -21.421875 C 22.75 -22.242188 22.378906 -22.921875 21.921875 -23.453125 C 21.460938 -23.992188 20.960938 -24.421875 20.421875 -24.734375 C 19.890625 -25.046875 19.320312 -25.265625 18.71875 -25.390625 C 18.125 -25.523438 17.578125 -25.59375 17.078125 -25.59375 C 15.910156 -25.59375 14.90625 -25.332031 14.0625 -24.8125 C 13.226562 -24.289062 12.535156 -23.609375 11.984375 -22.765625 C 11.429688 -21.929688 11.03125 -20.984375 10.78125 -19.921875 C 10.53125 -18.867188 10.40625 -17.828125 10.40625 -16.796875 C 10.40625 -15.628906 10.550781 -14.507812 10.84375 -13.4375 C 11.144531 -12.363281 11.585938 -11.414062 12.171875 -10.59375 C 12.753906 -9.769531 13.460938 -9.113281 14.296875 -8.625 C 15.140625 -8.144531 16.097656 -7.90625 17.171875 -7.90625 C 17.703125 -7.90625 18.25 -7.972656 18.8125 -8.109375 C 19.382812 -8.253906 19.929688 -8.488281 20.453125 -8.8125 C 20.972656 -9.144531 21.445312 -9.570312 21.875 -10.09375 C 22.300781 -10.613281 22.640625 -11.253906 22.890625 -12.015625 L 30.40625 -7.515625 C 29.9375 -6.285156 29.21875 -5.179688 28.25 -4.203125 C 27.289062 -3.234375 26.195312 -2.414062 24.96875 -1.75 C 23.738281 -1.082031 22.429688 -0.578125 21.046875 -0.234375 C 19.660156 0.109375 18.304688 0.28125 16.984375 0.28125 C 14.648438 0.28125 12.503906 -0.210938 10.546875 -1.203125 C 8.585938 -2.203125 6.90625 -3.519531 5.5 -5.15625 C 4.101562 -6.789062 3.007812 -8.648438 2.21875 -10.734375 C 1.4375 -12.816406 1.046875 -14.929688 1.046875 -17.078125 Z M 1.046875 -17.078125 "/></g></g><g style="fill:#ffffff;fill-opacity:1;"><g transform="translate(205.442993, 233.54435)"><path style="stroke:none" d="M 29.046875 -25.546875 L 19.390625 -25.546875 L 19.390625 0 L 10.171875 0 L 10.171875 -25.546875 L 0.46875 -25.546875 L 0.46875 -33.578125 L 29.046875 -33.578125 Z M 29.046875 -25.546875 "/></g></g><g style="fill:#ffffff;fill-opacity:1;"><g transform="translate(234.949765, 233.54435)"><path style="stroke:none" d="M 2.890625 0 L 2.890625 -33.578125 L 12.109375 -33.578125 L 12.109375 0 Z M 2.890625 0 "/></g></g><g style="fill:#ffffff;fill-opacity:1;"><g transform="translate(249.939571, 233.54435)"><path style="stroke:none" d="M 9.3125 -33.578125 L 15.890625 -11.59375 L 22.375 -33.578125 L 32.0625 -33.578125 L 19.71875 0 L 12.0625 0 L -0.421875 -33.578125 Z M 9.3125 -33.578125 "/></g></g><g style="fill:#ffffff;fill-opacity:1;"><g transform="translate(281.621535, 233.54435)"><path style="stroke:none" d="M 26.8125 -8.046875 L 26.8125 0 L 2.890625 0 L 2.890625 -33.578125 L 26.390625 -33.578125 L 26.390625 -25.546875 L 12.109375 -25.546875 L 12.109375 -20.8125 L 24.3125 -20.8125 L 24.3125 -13.34375 L 12.109375 -13.34375 L 12.109375 -8.046875 Z M 26.8125 -8.046875 "/></g></g><g style="fill:#ffffff;fill-opacity:1;"><g transform="translate(66.960598, 281.725511)"><path style="stroke:none" d="M -0.375 0 L 12.15625 -33.578125 L 19.625 -33.578125 L 32.109375 0 L 22.375 0 L 20.34375 -6.578125 L 11.40625 -6.578125 L 9.40625 0 Z M 15.890625 -23.984375 L 12.765625 -12.71875 L 18.875 -12.71875 Z M 15.890625 -23.984375 "/></g></g><g style="fill:#ffffff;fill-opacity:1;"><g transform="translate(98.689832, 281.725511)"><path style="stroke:none" d="M 2.890625 0 L 2.890625 -33.578125 L 12.109375 -33.578125 L 12.109375 -8.046875 L 27.34375 -8.046875 L 27.34375 0 Z M 2.890625 0 "/></g></g><g style="fill:#ffffff;fill-opacity:1;"><g transform="translate(126.494286, 281.725511)"><path style="stroke:none" d="M 29.046875 -25.546875 L 19.390625 -25.546875 L 19.390625 0 L 10.171875 0 L 10.171875 -25.546875 L 0.46875 -25.546875 L 0.46875 -33.578125 L 29.046875 -33.578125 Z M 29.046875 -25.546875 "/></g></g><g style="fill:#ffffff;fill-opacity:1;"><g transform="translate(156.001057, 281.725511)"><path style="stroke:none" d="M 2.890625 0 L 2.890625 -33.578125 L 18.296875 -33.578125 C 19.941406 -33.578125 21.457031 -33.238281 22.84375 -32.5625 C 24.226562 -31.882812 25.414062 -31 26.40625 -29.90625 C 27.40625 -28.820312 28.1875 -27.578125 28.75 -26.171875 C 29.320312 -24.773438 29.609375 -23.367188 29.609375 -21.953125 C 29.609375 -19.992188 29.179688 -18.171875 28.328125 -16.484375 C 27.472656 -14.796875 26.289062 -13.414062 24.78125 -12.34375 L 32.34375 0 L 21.953125 0 L 15.5625 -10.3125 L 12.109375 -10.3125 L 12.109375 0 Z M 12.109375 -18.34375 L 17.921875 -18.34375 C 18.492188 -18.34375 19.023438 -18.660156 19.515625 -19.296875 C 20.003906 -19.929688 20.25 -20.816406 20.25 -21.953125 C 20.25 -23.117188 19.960938 -24.007812 19.390625 -24.625 C 18.828125 -25.238281 18.257812 -25.546875 17.6875 -25.546875 L 12.109375 -25.546875 Z M 12.109375 -18.34375 "/></g></g><g style="fill:#ffffff;fill-opacity:1;"><g transform="translate(188.439586, 281.725511)"><path style="stroke:none" d="M 17.5 -7.90625 C 18.570312 -7.90625 19.484375 -8.140625 20.234375 -8.609375 C 20.992188 -9.078125 21.609375 -9.695312 22.078125 -10.46875 C 22.554688 -11.25 22.90625 -12.140625 23.125 -13.140625 C 23.34375 -14.148438 23.453125 -15.207031 23.453125 -16.3125 L 23.453125 -33.578125 L 32.6875 -33.578125 L 32.6875 -16.3125 C 32.6875 -13.976562 32.382812 -11.796875 31.78125 -9.765625 C 31.1875 -7.734375 30.253906 -5.972656 28.984375 -4.484375 C 27.722656 -3.003906 26.140625 -1.835938 24.234375 -0.984375 C 22.328125 -0.140625 20.082031 0.28125 17.5 0.28125 C 14.820312 0.28125 12.523438 -0.164062 10.609375 -1.0625 C 8.703125 -1.957031 7.132812 -3.160156 5.90625 -4.671875 C 4.675781 -6.191406 3.773438 -7.953125 3.203125 -9.953125 C 2.640625 -11.953125 2.359375 -14.070312 2.359375 -16.3125 L 2.359375 -33.578125 L 11.59375 -33.578125 L 11.59375 -16.3125 C 11.59375 -15.207031 11.703125 -14.144531 11.921875 -13.125 C 12.140625 -12.101562 12.484375 -11.203125 12.953125 -10.421875 C 13.429688 -9.648438 14.039062 -9.035156 14.78125 -8.578125 C 15.519531 -8.128906 16.425781 -7.90625 17.5 -7.90625 Z M 17.5 -7.90625 "/></g></g><g style="fill:#ffffff;fill-opacity:1;"><g transform="translate(223.478878, 281.725511)"><path style="stroke:none" d="M 2.890625 0 L 2.890625 -33.578125 L 12.109375 -33.578125 L 12.109375 0 Z M 2.890625 0 "/></g></g><g style="fill:#ffffff;fill-opacity:1;"><g transform="translate(238.468685, 281.725511)"><path style="stroke:none" d="M 23.21875 -22.609375 C 22.269531 -23.171875 21.296875 -23.675781 20.296875 -24.125 C 19.441406 -24.5 18.484375 -24.851562 17.421875 -25.1875 C 16.367188 -25.519531 15.335938 -25.6875 14.328125 -25.6875 C 13.503906 -25.6875 12.847656 -25.554688 12.359375 -25.296875 C 11.878906 -25.046875 11.640625 -24.625 11.640625 -24.03125 C 11.640625 -23.582031 11.78125 -23.21875 12.0625 -22.9375 C 12.34375 -22.65625 12.75 -22.394531 13.28125 -22.15625 C 13.820312 -21.914062 14.476562 -21.6875 15.25 -21.46875 C 16.019531 -21.25 16.894531 -20.984375 17.875 -20.671875 C 19.425781 -20.191406 20.820312 -19.664062 22.0625 -19.09375 C 23.3125 -18.53125 24.375 -17.863281 25.25 -17.09375 C 26.132812 -16.320312 26.8125 -15.382812 27.28125 -14.28125 C 27.757812 -13.175781 28 -11.835938 28 -10.265625 C 28 -8.242188 27.628906 -6.546875 26.890625 -5.171875 C 26.148438 -3.804688 25.171875 -2.710938 23.953125 -1.890625 C 22.742188 -1.066406 21.375 -0.472656 19.84375 -0.109375 C 18.3125 0.242188 16.773438 0.421875 15.234375 0.421875 C 14.003906 0.421875 12.738281 0.328125 11.4375 0.140625 C 10.144531 -0.046875 8.859375 -0.3125 7.578125 -0.65625 C 6.304688 -1.007812 5.078125 -1.421875 3.890625 -1.890625 C 2.710938 -2.359375 1.617188 -2.894531 0.609375 -3.5 L 4.59375 -11.59375 C 5.695312 -10.894531 6.847656 -10.28125 8.046875 -9.75 C 9.046875 -9.269531 10.1875 -8.84375 11.46875 -8.46875 C 12.75 -8.09375 14.050781 -7.90625 15.375 -7.90625 C 16.382812 -7.90625 17.082031 -8.035156 17.46875 -8.296875 C 17.863281 -8.566406 18.0625 -8.921875 18.0625 -9.359375 C 18.0625 -9.835938 17.863281 -10.238281 17.46875 -10.5625 C 17.082031 -10.894531 16.539062 -11.1875 15.84375 -11.4375 C 15.144531 -11.695312 14.347656 -11.953125 13.453125 -12.203125 C 12.554688 -12.453125 11.601562 -12.75 10.59375 -13.09375 C 9.113281 -13.601562 7.835938 -14.148438 6.765625 -14.734375 C 5.691406 -15.316406 4.804688 -15.976562 4.109375 -16.71875 C 3.421875 -17.457031 2.910156 -18.300781 2.578125 -19.25 C 2.242188 -20.195312 2.078125 -21.285156 2.078125 -22.515625 C 2.078125 -24.367188 2.414062 -26.003906 3.09375 -27.421875 C 3.769531 -28.847656 4.691406 -30.03125 5.859375 -30.96875 C 7.023438 -31.914062 8.359375 -32.632812 9.859375 -33.125 C 11.359375 -33.613281 12.941406 -33.859375 14.609375 -33.859375 C 15.835938 -33.859375 17.035156 -33.738281 18.203125 -33.5 C 19.367188 -33.269531 20.492188 -32.972656 21.578125 -32.609375 C 22.671875 -32.242188 23.691406 -31.847656 24.640625 -31.421875 C 25.585938 -31.003906 26.441406 -30.601562 27.203125 -30.21875 Z M 23.21875 -22.609375 "/></g></g><g style="fill:#ffffff;fill-opacity:1;"><g transform="translate(267.644452, 281.725511)"><path style="stroke:none" d="M 28.28125 0 L 28.28125 -17.6875 L 22.65625 -5.25 L 17.734375 -5.25 L 12.109375 -17.6875 L 12.109375 0 L 2.890625 0 L 2.890625 -33.578125 L 12.953125 -33.578125 L 20.203125 -17.78125 L 27.484375 -33.578125 L 37.5 -33.578125 L 37.5 0 Z M 28.28125 0 "/></g></g><g style="fill:#1e5367;fill-opacity:1;"><g transform="translate(105.968836, 332.326449)"><path style="stroke:none" d="M 26.78125 0 L 19.578125 0 L 17.421875 -9.828125 C 17.316406 -10.234375 17.15625 -11.046875 16.9375 -12.265625 C 16.71875 -13.492188 16.554688 -14.519531 16.453125 -15.34375 C 16.367188 -14.675781 16.234375 -13.84375 16.046875 -12.84375 C 15.867188 -11.851562 15.6875 -10.941406 15.5 -10.109375 C 15.320312 -9.273438 14.578125 -5.90625 13.265625 0 L 6.0625 0 L 0.484375 -22.546875 L 6.359375 -22.546875 L 8.796875 -11.234375 C 9.359375 -8.742188 9.738281 -6.753906 9.9375 -5.265625 C 10.070312 -6.316406 10.3125 -7.742188 10.65625 -9.546875 C 11 -11.347656 11.320312 -12.835938 11.625 -14.015625 L 13.609375 -22.546875 L 19.265625 -22.546875 L 21.1875 -14.015625 C 21.507812 -12.648438 21.84375 -11.070312 22.1875 -9.28125 C 22.53125 -7.488281 22.753906 -6.148438 22.859375 -5.265625 C 22.992188 -6.410156 23.363281 -8.390625 23.96875 -11.203125 L 26.453125 -22.546875 L 32.328125 -22.546875 Z M 26.78125 0 "/></g></g><g style="fill:#1e5367;fill-opacity:1;"><g transform="translate(138.770152, 332.326449)"><path style="stroke:none" d="M 16.265625 0 L 15.15625 -4.21875 L 7.828125 -4.21875 L 6.6875 0 L 0 0 L 7.359375 -22.640625 L 15.484375 -22.640625 L 22.921875 0 Z M 13.890625 -9.21875 L 12.921875 -12.921875 C 12.691406 -13.742188 12.414062 -14.804688 12.09375 -16.109375 C 11.769531 -17.421875 11.554688 -18.359375 11.453125 -18.921875 C 11.359375 -18.390625 11.175781 -17.523438 10.90625 -16.328125 C 10.632812 -15.128906 10.03125 -12.757812 9.09375 -9.21875 Z M 13.890625 -9.21875 "/></g></g><g style="fill:#1e5367;fill-opacity:1;"><g transform="translate(161.691004, 332.326449)"><path style="stroke:none" d="M 8.53125 -8.203125 L 8.53125 0 L 2.4375 0 L 2.4375 -22.546875 L 9.828125 -22.546875 C 15.953125 -22.546875 19.015625 -20.320312 19.015625 -15.875 C 19.015625 -13.269531 17.738281 -11.253906 15.1875 -9.828125 L 21.75 0 L 14.84375 0 L 10.0625 -8.203125 Z M 8.53125 -12.78125 L 9.671875 -12.78125 C 11.796875 -12.78125 12.859375 -13.722656 12.859375 -15.609375 C 12.859375 -17.160156 11.816406 -17.9375 9.734375 -17.9375 L 8.53125 -17.9375 Z M 8.53125 -12.78125 "/></g></g><g style="fill:#1e5367;fill-opacity:1;"><g transform="translate(183.055019, 332.326449)"><path style="stroke:none" d="M 26.78125 0 L 19.578125 0 L 17.421875 -9.828125 C 17.316406 -10.234375 17.15625 -11.046875 16.9375 -12.265625 C 16.71875 -13.492188 16.554688 -14.519531 16.453125 -15.34375 C 16.367188 -14.675781 16.234375 -13.84375 16.046875 -12.84375 C 15.867188 -11.851562 15.6875 -10.941406 15.5 -10.109375 C 15.320312 -9.273438 14.578125 -5.90625 13.265625 0 L 6.0625 0 L 0.484375 -22.546875 L 6.359375 -22.546875 L 8.796875 -11.234375 C 9.359375 -8.742188 9.738281 -6.753906 9.9375 -5.265625 C 10.070312 -6.316406 10.3125 -7.742188 10.65625 -9.546875 C 11 -11.347656 11.320312 -12.835938 11.625 -14.015625 L 13.609375 -22.546875 L 19.265625 -22.546875 L 21.1875 -14.015625 C 21.507812 -12.648438 21.84375 -11.070312 22.1875 -9.28125 C 22.53125 -7.488281 22.753906 -6.148438 22.859375 -5.265625 C 22.992188 -6.410156 23.363281 -8.390625 23.96875 -11.203125 L 26.453125 -22.546875 L 32.328125 -22.546875 Z M 26.78125 0 "/></g></g><g style="fill:#1e5367;fill-opacity:1;"><g transform="translate(215.856336, 332.326449)"><path style="stroke:none" d="M 2.4375 0 L 2.4375 -22.546875 L 8.5625 -22.546875 L 8.5625 0 Z M 2.4375 0 "/></g></g><g style="fill:#1e5367;fill-opacity:1;"><g transform="translate(226.846633, 332.326449)"><path style="stroke:none" d="M 12.46875 -17.875 C 11.019531 -17.875 9.890625 -17.28125 9.078125 -16.09375 C 8.265625 -14.90625 7.859375 -13.265625 7.859375 -11.171875 C 7.859375 -6.835938 9.507812 -4.671875 12.8125 -4.671875 C 13.8125 -4.671875 14.773438 -4.804688 15.703125 -5.078125 C 16.640625 -5.359375 17.582031 -5.695312 18.53125 -6.09375 L 18.53125 -0.9375 C 16.65625 -0.101562 14.53125 0.3125 12.15625 0.3125 C 8.75 0.3125 6.140625 -0.671875 4.328125 -2.640625 C 2.515625 -4.617188 1.609375 -7.472656 1.609375 -11.203125 C 1.609375 -13.535156 2.046875 -15.585938 2.921875 -17.359375 C 3.796875 -19.128906 5.054688 -20.488281 6.703125 -21.4375 C 8.359375 -22.382812 10.300781 -22.859375 12.53125 -22.859375 C 14.96875 -22.859375 17.296875 -22.332031 19.515625 -21.28125 L 17.65625 -16.484375 C 16.820312 -16.867188 15.988281 -17.195312 15.15625 -17.46875 C 14.320312 -17.738281 13.425781 -17.875 12.46875 -17.875 Z M 12.46875 -17.875 "/></g></g><g style="fill:#1e5367;fill-opacity:1;"><g transform="translate(247.332048, 332.326449)"><path style="stroke:none" d="M 21.6875 0 L 14.8125 0 L 10.359375 -8.625 L 8.5625 -7.546875 L 8.5625 0 L 2.4375 0 L 2.4375 -22.546875 L 8.5625 -22.546875 L 8.5625 -12.75 C 8.863281 -13.351562 9.484375 -14.316406 10.421875 -15.640625 L 15.15625 -22.546875 L 21.8125 -22.546875 L 14.703125 -12.4375 Z M 21.6875 0 "/></g></g></g></svg>